<?xml version="1.0" encoding="utf-8"?>
<!-- Generator: Adobe Illustrator 22.1.0, SVG Export Plug-In . SVG Version: 6.00 Build 0)  -->
<svg version="1.1" id="Layer_1" xmlns="http://www.w3.org/2000/svg" xmlns:xlink="http://www.w3.org/1999/xlink" x="0px" y="0px"
	 viewBox="0 0 453 100" style="enable-background:new 0 0 453 100;" xml:space="preserve">
<g>
	<path d="M81,31.4c0,1.1-1,1.9-3.1,2.4c-1.2,0.3-2.2,0.5-3.1,0.5c-0.7,0-1.8-0.1-3.3-0.3c-1.5-0.2-2.6-0.3-3.3-0.3
		c-0.6,0-1.5,0-2.7,0.1s-2.1,0.1-2.7,0.1c-0.8,0-2.1-0.2-3.9-0.7c-1.8-0.5-3.1-0.7-3.9-0.7c-0.2,0-2.2,0.1-5.8,0.2L43.1,33
		c-0.2,0-2.9-0.2-8-0.5L27,32.2c-1.1,0-1.7,0.1-2,0.4s-0.4,0.9-0.4,1.9c0,0.6,0.3,2.4,1,5.5c0.2,0.8,0.2,1.5,0.2,2
		c0,0.6-0.2,1.3-0.6,2.2c-0.4,0.9-0.6,1.4-0.6,1.6v1.1c2.4-0.6,4.7-0.9,6.9-0.9c1.7,0,4.3,0.4,7.8,1.3c3.5,0.9,6.1,1.3,7.8,1.3
		c0.6,0,1.5,0,2.7-0.1c1.2-0.1,2.1-0.1,2.7-0.1c0.4,0,1.1,0.1,1.9,0.3c0.9,0.2,1.5,0.3,1.9,0.3c0.2,0,2.5-0.1,6.7-0.2l6.7-0.1
		c1.8,0,2.7,0.7,2.7,2c0,0.2-0.1,0.7-0.4,1.4c-0.2,0.7-0.4,1.2-0.4,1.5c0,0.2,0.1,1.1,0.2,2.5c0.2,2.1-0.9,3.5-3.6,4.2
		c-2.3,0.2-4.6,0.5-6.8,0.7c-6,0.8-10.1,1.2-12.3,1.2c-0.7,0-1.9-0.1-3.5-0.3c-1.6-0.2-2.7-0.3-3.3-0.3c-0.7,0-1.7-0.3-3.3-0.9
		c-1.5-0.6-2.6-0.9-3.1-0.9c-0.2,0-0.7,0.1-1.4,0.2c-0.7,0.2-1.2,0.2-1.5,0.2c-2.2-0.1-5.2-0.1-9,0c0,0.2,0.4,2.1,1.1,5.8
		c0.5,2.6,0.7,4.6,0.7,6c0,1-0.1,1.9-0.4,2.7c9.7,1.7,18.7,2.6,26.9,2.6h17.8c1.6,0,3.6,0.2,5.8,0.6c0.2,1.3,0.4,3.1,0.4,5.3
		c0,4-1.1,6-3.3,6c-0.6,0-1.5-0.1-2.8-0.4c-1.3-0.3-2.2-0.4-2.8-0.4c-0.9,0-2.2,0.2-4,0.6c-1.8,0.4-3.1,0.6-4,0.6
		c-0.3,0-0.9-0.1-1.8-0.3c-0.9-0.2-1.6-0.3-2-0.3l-3.7,0.5c-2.3,0.3-5.5,0.6-9.5,0.9l-3.5,0.1c-0.4,0-1.1-0.1-2-0.3
		c-0.9-0.2-1.5-0.3-1.8-0.3c1.1,0-1.8,0.4-8.5,1.1c-1.6,0-3.9,0-7,0.1c-0.7,0.1-2.8,0.7-6.3,1.7c-0.7-1.2-1.6-3.5-3-6.9
		c-1.6-4.7-2.5-8.8-2.5-12.2c0-0.2,0.5-3.9,1.4-11.1l1.4-11.1c0-1.3-0.1-3.1-0.4-5.3c-0.3-2.6-0.5-4.4-0.6-5.3c0-0.1,0-1.7,0-4.9
		c0-3.1,0-7.9,0-14.2c0.3-0.3,1.3-0.9,2.9-1.6c1.6-0.7,2.7-1.1,3.1-1.1c0.3,0,0.9,0.1,1.6,0.2c0.7,0.1,1.3,0.2,1.6,0.2
		c0.6,0,1.4-0.1,2.6-0.2c1.1-0.1,2-0.2,2.6-0.2c0.3,0,0.8,0.1,1.5,0.2c0.7,0.1,1.2,0.2,1.5,0.2c0.9,0,2.2-0.2,3.9-0.6
		c1.7-0.4,3-0.6,3.9-0.6c0.7,0,2,0.3,4.1,0.8c2.1,0.5,3.5,0.8,4.1,0.9c6.5,0.8,12.7,1.2,18.7,1.2c0.6,0,1.5,0,2.6,0s2.1,0,2.6,0
		c0.8,0,2.1,0.1,3.7,0.3c1.6,0.2,2.9,0.3,3.7,0.3c-1.1,0-0.6,0,1.5,0c2.1,0,3.6,0,4.6,0c-0.5,2.3-0.6,4.9-0.4,7.9
		c0,0.2,0.1,0.4,0.2,0.7C80.9,30.9,81,31.2,81,31.4z"/>
	<path d="M156.5,29.7c0,1.7-1,2.5-3,2.5c-0.9,0-3.7-0.1-8.3-0.4c-4.1-0.2-9.9-0.5-17.4-0.9c-0.8-0.2-2.3-0.6-4.4-1l-4.7-0.5
		l-10.4-0.9c-3.5,0-7,0.2-10.7,0.6c0.5,1.2,1.1,2.9,1.7,5.2c0,0.2-0.1,1.7-0.2,4.7c0.6,0.9,2.1,1.5,4.4,1.7c1.7,0.1,3.5,0.2,5.2,0.2
		l14.4,2.2c0.2,0,0.5,0,0.9-0.1c0.4-0.1,0.7-0.1,0.9-0.1c0.2,0,3.6,0.5,10.1,1.4l10.1,1.4c0.2,0,0.6-0.1,1-0.2
		c0.4-0.1,0.7-0.2,1-0.2c0.7,0,1.5,0.3,2.4,0.8c0.9,0.5,1.5,1.1,1.5,1.7c0.5,5.1,0.7,12,0.7,20.6c-0.1,1.1-0.4,4.1-0.9,9.1
		c-0.2,3.7-0.6,8.3-1.1,13.8c0,0.7-0.7,1.4-2,1.8h-2c-1.7,0-3-0.1-3.9-0.4c-0.6-0.4-1.5-0.9-2.7-1.3c-4.4-0.1-11-0.3-20-0.6
		c-1-0.3-2.3-0.6-3.8-0.9c-0.9-0.2-2.8-0.3-5.8-0.3H107c-0.6,0-1.2,0-2,0c-0.2,0-2.5,0-6.9,0h-7c-0.6,0-1.6-0.2-3-0.6
		c-1.4-0.4-2.4-0.6-3-0.6c-0.3,0-0.9,0.1-1.7,0.3c-0.8,0.2-1.4,0.3-1.7,0.3c-1.5,0-2.2-1.1-2.2-3.3c0,0.9,0.2,0.6,0.7-0.9
		c0.5-1.5,1-3.1,1.6-4.9c0.7-2.1,1.2-3.2,1.5-3.5c1.1-0.8,3.1-1.2,6.2-1.2c0.2,0,2.6,0.2,7,0.5l6.9,0.4H114c0.3,0,0.9,0.1,1.8,0.2
		c0.9,0.1,1.5,0.2,1.8,0.2c0.8,0,2-0.2,3.6-0.7c1.6-0.5,2.8-0.7,3.6-0.7c0.6,0,1.5,0.2,2.7,0.6c1.2,0.4,2.1,0.6,2.7,0.6
		c0.4,0,1.7-0.3,3.9-0.7c2.2-0.5,3.3-0.8,3.5-1c0.1-3.1,0.3-7.8,0.6-14.1c-0.2-0.1-1.2-0.6-2.8-1.5c-1.6-0.9-2.5-1.4-2.8-1.4
		c-0.4,0-1,0-1.7,0.1c-0.7,0.1-1.3,0.1-1.7,0.1c-0.3,0-1.1-0.2-2.4-0.7c-1.3-0.5-2.1-0.7-2.4-0.7c-0.4,0-1,0.1-1.7,0.3
		c-0.7,0.2-1.3,0.3-1.7,0.3c-0.2,0-1.2-0.3-3-1c-1.8-0.7-3-1.1-3.6-1.2c-9.5-1.6-15.1-2.5-17-2.5c-0.2,0-1.7,0-4.7,0.1l-4.9,0.1
		c-0.4,0-1.4-0.2-2.9-0.7c-1.5-0.5-2.6-0.7-3.1-0.8V42c0-0.7,0.2-1.8,0.7-3.3c0.7-1.1,1.5-2.7,2.3-4.9c-0.2-2.5-0.2-6.4-0.2-11.5
		c0.5-5.3,1.8-8,3.9-8c0.4,0,1,0.1,1.9,0.3c0.9,0.2,1.5,0.3,1.9,0.3c-0.8,0,0.2,0,3.2-0.1c3.5,0,8,0,13.7-0.1c2.2,0,5.3-0.1,9.1-0.4
		l6.3-0.4c0.7,0,1.8,0.2,3.3,0.5c1.5,0.3,2.6,0.5,3.3,0.5c0.7,0,1.8-0.1,3.2-0.3c1.4-0.2,2.5-0.3,3.2-0.3c0.2,0,2.8-0.1,7.9-0.4
		l9.1-0.5l1,5.4c0,0.6-0.2,1.5-0.6,2.7c-0.4,1.2-0.6,2.1-0.6,2.7c0,1.2,0.3,2.4,0.9,3.6C156.1,29,156.5,29.6,156.5,29.7z"/>
	<path d="M226.3,19c0,0.2,0,1,0,2.3c-0.1,1.9-0.2,5.3-0.2,10.1c-0.2,1.2-0.5,4.4-1,9.4c-0.2,2.3-0.9,8.5-2.1,18.6
		c-2.1,1.2-3.9,1.8-5.4,1.8c-2.5,0-6.2-0.4-11.3-1.2c-1.6-0.1-2.5,0-2.7,0.2c1.3,1.6,3,4.2,4.9,7.5c0.3,0.7,1.1,2.1,2.3,4.3
		c0.4,0.7,1.8,2.4,4.2,5.1c1.9,2.1,2.8,3.2,2.8,3.6c0,1.1-1.2,2.1-3.6,3.2c-1.1,0.7-2.9,2.1-5.5,4.2c-2.3,1.8-3.6,2.7-3.9,2.7
		c-0.9,0-2.3-1.3-4.3-3.8c-0.9-0.7-2.1-1.8-3.6-3.3c-0.6-1.5-1.5-3.7-2.8-6.7c-1.2-2.1-3.2-5.1-6.3-9c-2.5-3.3-4.1-5.7-4.7-7.2
		c-0.3-0.7-0.8-1.1-1.5-1.1h-3.2c-0.9,0.3-1,1.5-0.4,3.4c0.4,1.2,0.7,4.6,0.7,10.3l-0.2,0.2c0,1.2,0.2,2.9,0.7,5.1
		c0.5,2.2,0.7,3.9,0.7,5.1c0,1.2-0.2,2.2-0.7,3.2c-0.7,1.3-1.5,2-2.5,2c-1.8,0-4.9,0.3-9.2,1c-0.2,0-0.5,0.1-1,0.4
		c-0.5,0.2-0.9,0.4-1.1,0.4c-1.4,0-2.1-1-2.1-3.1c0-0.3,0.1-2.3,0.4-5.9c0.2-2.8,0.2-4.9,0-6.2c-1.1-7.3-1.6-13.8-1.6-19.6
		c0-0.2,0.2-2.4,0.7-6.6l0.5-6.6c0-1.6-0.2-4-0.7-7.3c-0.5-3.3-0.7-5.9-0.7-7.7c0-3.9-0.9-6.7-2.6-8.5c0-0.5,0.3-1,0.9-1.5
		s1.2-0.9,1.7-1.4c0.3,0.4,0.8,0.6,1.5,0.6c0.2,0,0.9-0.3,2.3-0.8c1.4-0.6,2.3-0.9,2.8-1c4.3,0,8.8-0.3,13.6-0.9
		c1.2-0.2,2.3-0.3,3.1-0.5c0.8-0.2,1.1-0.3,0.9-0.3c1.2,0,2.7,0,4.6-0.1c2.3-0.1,5.6,0.1,9.9,0.6c0.7,0,1.7-0.1,3.1-0.3
		c1.4-0.2,2.5-0.3,3.1-0.3c1.3,0,2.8,0.3,4.4,0.9c1.6,0.6,2.7,0.9,3.4,0.9c0.2,0,0.4,0,0.7-0.1c0.3-0.1,0.5-0.1,0.7-0.1
		c3.3,0,6.4,0.5,9.4,1.6C225.9,17,226.3,17.8,226.3,19z M209.2,32.3c-1.2-0.1-3.3-0.1-6.5,0c-2.1,0-3.6,0-4.4,0c2.4,0,1-0.4-4.1-1.2
		c-5.1-0.8-8.6-1.2-10.6-1.2H177c0.3,0.6,0.5,1.3,0.5,2.1c0,0.5-0.1,1.2-0.3,2.2c-0.2,1-0.3,1.7-0.3,2.1c0,0.4,0.1,1.6,0.4,3.7
		l0.6,5.1c5.3,0.8,8.8,1.2,10.7,1.2c0.7,0,1.8-0.1,3.3-0.2c1.4-0.2,2.5-0.2,3.3-0.2c1.2,0,3.5,0.1,6.7,0.4c3.9,0.3,5.9,0.5,6.2,0.4
		C208,43.3,208.4,38.6,209.2,32.3z"/>
	<path d="M306.2,31.4c0,1.1-1,1.9-3.1,2.4c-1.2,0.3-2.2,0.5-3.1,0.5c-0.7,0-1.8-0.1-3.3-0.3c-1.5-0.2-2.6-0.3-3.3-0.3
		c-0.6,0-1.5,0-2.7,0.1s-2.1,0.1-2.7,0.1c-0.8,0-2.1-0.2-3.9-0.7c-1.8-0.5-3.1-0.7-3.9-0.7c-0.2,0-2.2,0.1-5.8,0.2l-5.9,0.4
		c-0.2,0-2.9-0.2-8-0.5l-8.1-0.4c-1.1,0-1.7,0.1-2,0.4s-0.4,0.9-0.4,1.9c0,0.6,0.3,2.4,1,5.5c0.2,0.8,0.2,1.5,0.2,2
		c0,0.6-0.2,1.3-0.6,2.2c-0.4,0.9-0.6,1.4-0.6,1.6v1.1c2.4-0.6,4.7-0.9,6.9-0.9c1.7,0,4.3,0.4,7.8,1.3c3.5,0.9,6.1,1.3,7.8,1.3
		c0.6,0,1.5,0,2.7-0.1c1.2-0.1,2.1-0.1,2.7-0.1c0.4,0,1.1,0.1,1.9,0.3c0.9,0.2,1.5,0.3,1.9,0.3c0.2,0,2.5-0.1,6.7-0.2l6.7-0.1
		c1.8,0,2.7,0.7,2.7,2c0,0.2-0.1,0.7-0.4,1.4c-0.2,0.7-0.4,1.2-0.4,1.5c0,0.2,0.1,1.1,0.2,2.5c0.2,2.1-0.9,3.5-3.6,4.2
		c-2.3,0.2-4.6,0.5-6.8,0.7c-6,0.8-10.1,1.2-12.3,1.2c-0.7,0-1.9-0.1-3.5-0.3c-1.6-0.2-2.7-0.3-3.3-0.3c-0.7,0-1.7-0.3-3.3-0.9
		c-1.5-0.6-2.6-0.9-3.1-0.9c-0.2,0-0.7,0.1-1.4,0.2c-0.7,0.2-1.2,0.2-1.5,0.2c-2.2-0.1-5.2-0.1-9,0c0,0.2,0.4,2.1,1.1,5.8
		c0.5,2.6,0.7,4.6,0.7,6c0,1-0.1,1.9-0.4,2.7c9.7,1.7,18.7,2.6,26.9,2.6h17.8c1.6,0,3.6,0.2,5.8,0.6c0.2,1.3,0.4,3.1,0.4,5.3
		c0,4-1.1,6-3.3,6c-0.6,0-1.5-0.1-2.8-0.4c-1.3-0.3-2.2-0.4-2.8-0.4c-0.9,0-2.2,0.2-4,0.6c-1.8,0.4-3.1,0.6-4,0.6
		c-0.3,0-0.9-0.1-1.8-0.3c-0.9-0.2-1.6-0.3-2-0.3l-3.7,0.5c-2.3,0.3-5.5,0.6-9.5,0.9l-3.5,0.1c-0.4,0-1.1-0.1-2-0.3
		c-0.9-0.2-1.5-0.3-1.8-0.3c1.1,0-1.8,0.4-8.5,1.1c-1.6,0-3.9,0-7,0.1c-0.7,0.1-2.8,0.7-6.3,1.7c-0.7-1.2-1.6-3.5-3-6.9
		c-1.6-4.7-2.5-8.8-2.5-12.2c0-0.2,0.5-3.9,1.4-11.1l1.4-11.1c0-1.3-0.1-3.1-0.4-5.3c-0.3-2.6-0.5-4.4-0.6-5.3c0-0.1,0-1.7,0-4.9
		c0-3.1,0-7.9,0-14.2c0.3-0.3,1.3-0.9,2.9-1.6c1.6-0.7,2.7-1.1,3.1-1.1c0.3,0,0.9,0.1,1.6,0.2c0.7,0.1,1.3,0.2,1.6,0.2
		c0.6,0,1.4-0.1,2.6-0.2c1.1-0.1,2-0.2,2.6-0.2c0.3,0,0.8,0.1,1.5,0.2c0.7,0.1,1.2,0.2,1.5,0.2c0.9,0,2.2-0.2,3.9-0.6
		c1.7-0.4,3-0.6,3.9-0.6c0.7,0,2,0.3,4.1,0.8c2.1,0.5,3.5,0.8,4.1,0.9c6.5,0.8,12.7,1.2,18.7,1.2c0.6,0,1.5,0,2.6,0s2.1,0,2.6,0
		c0.8,0,2.1,0.1,3.7,0.3c1.6,0.2,2.9,0.3,3.7,0.3c-1.1,0-0.6,0,1.5,0c2.1,0,3.6,0,4.6,0c-0.5,2.3-0.6,4.9-0.4,7.9
		c0,0.2,0.1,0.4,0.2,0.7C306.1,30.9,306.2,31.2,306.2,31.4z"/>
	<path d="M387.8,78.4c0,0.2-2.8,4.6-8.4,12.9c-0.2,0.1-0.6,0.1-1.4,0.1c-1.2,0-1.9-0.2-2.2-0.6c-0.6-0.7-1.1-1.9-1.5-3.5
		c-0.6-2.1-0.9-3.3-1.1-3.7c-1.4-2.4-3.5-6.1-6.3-11.1c-0.6-1.8-1.6-4.4-3-7.9c-0.9,0.1-2.5,0.4-4.7,0.8c-2.3,0.5-3.8,0.7-4.7,0.7
		c-0.3,0-0.8,0-1.4-0.1c-0.6-0.1-1-0.1-1.4-0.1c-0.9,0-2.5,0.2-4.8,0.6c-2.3,0.4-3.9,0.7-4.8,0.7c-5,0.3-8.1,0.6-9.1,0.7
		c-2.6,0.2-5.4,0.7-8.4,1.4c-0.4,3.9-0.9,9.8-1.6,17.5c-0.8,0.5-1.3,0.7-1.5,0.7c-0.8-0.2-3.3-0.7-7.4-1.6c-4.1-0.9-6.7-1.2-7.9-1
		c-0.5-0.5-0.7-0.9-0.7-1.1c0-0.2,0.5-1,1.4-2.7c0.9-1.6,1.4-2.7,1.5-3.3c0.2-1.5,0.9-4.1,2.1-7.9c1.6-4.4,4.2-12.1,7.8-22.9
		c2.1-4.7,3.8-8.9,5.1-12.6c0.5-1.6,2.1-7.7,4.8-18.5c-0.6,0-0.9-0.4-0.9-1.2c0.6-1,1.3-1.6,2.2-1.7c4.6-1.1,7.9-1.6,10-1.6
		c0.2,0,0.6,0.1,1,0.3c0.5,0.2,0.8,0.3,1,0.3h1.4c1.2-0.4,3.1-0.9,5.7-1.4c1.6-0.1,4.1-0.3,7.3-0.7l4.9-0.5c0.6,0,1.4,0.6,2.6,1.7
		c1.2,1.1,1.8,2,1.8,2.6c0.1,0.6,0.3,1.7,0.6,3.1c2.6,6.1,4.5,10.6,5.5,13.6c2,5.4,3.2,9.9,3.6,13.4c0.6,1.4,1.4,3.5,2.6,6.4
		c0.4,2.4,1.3,6.1,2.6,11.2c0.7,0.9,1.7,2.3,2.8,4.1c0.7,2.1,1.7,5.3,3.1,9.7c0.1,0.1,0.4,0.5,0.9,1.3
		C387.5,77.5,387.8,78.1,387.8,78.4z M359.3,48.8c-4.7-8.6-7.7-15.9-9-21.8c-0.1-0.2-0.4-0.4-0.9-0.6c-2,0.3-5.1,0.8-9.4,1.4
		c-2.3,0.3-3.7,0.7-4.2,1.2c-0.1,0.6-0.2,1.3-0.5,2.1c-0.7,1.6-1.6,4.1-2.7,7.4c0,1.6-0.5,4.1-1.4,7.3c-1.3,2.3-2,3.7-2,4.1
		c0,0.2,0.1,0.6,0.2,1c0.1,0.4,0.2,0.7,0.2,1h8c0.7,0,2.1-0.2,4.2-0.7c2.1-0.5,3.5-0.8,4.3-0.9C352.3,49.7,356.7,49.2,359.3,48.8z"
		/>
	<path d="M447,87c0,0.6-0.4,1.2-1.1,1.9c-0.7,0.7-1.4,1.1-2,1.1c-0.2,0-0.7-0.1-1.2-0.4c-0.6-0.2-1-0.4-1.2-0.4s-2.7,0.2-7.4,0.5
		l-7.4,0.2c-0.2,0-1.9-0.1-5.1-0.3l-4.9-0.4c-0.7,0-2.1,0.1-4,0.4c-1.9,0.2-3.3,0.4-4,0.4c-0.2,0-2.3-0.1-6.3-0.3l-6.5-0.4
		c-1.6,0-2.8,0.2-3.8,0.7l-1.5,0.7c-0.2,0-0.4-0.1-0.7-0.2c-0.3-0.1-0.5-0.2-0.7-0.2c0-0.7-0.1-1.6-0.3-3c-0.2-1.3-0.3-2.3-0.3-3
		c0-0.2,0.3-1.1,0.8-2.7c0.5-1.5,0.8-2.5,0.9-3c0.6-4.8,0.9-9.5,0.9-14.1c0-4.4,0-7.1,0.1-8.3c0.1-0.9,0.6-2.4,1.6-4.4
		c1-2,1.6-3.5,1.7-4.4l2.8-14.5c0.6-1.2,1.3-3.2,2.2-5.9c0.2-1.6,0.7-3.9,1.5-7.1c-0.2-1.6-0.4-2.3-0.5-2.1c0.2-0.3,0.7-0.6,1.4-0.7
		c1.8-0.5,3.7-0.7,5.8-0.7c0.3,0,0.8,0.1,1.5,0.4c0.7,0.3,1.2,0.4,1.5,0.4c0.2,0,0.6-0.1,1-0.4c0.4-0.3,0.7-0.4,1-0.4h1.8
		c0.4,0.8,0.6,1.6,0.6,2.5c0,0.4-0.1,1.3-0.4,2.7c-0.3,1.4-0.4,2.3-0.4,2.6c-0.1,2.4-0.4,5.9-1,10.5c-0.5,1.9-1.4,5.3-2.7,10.4
		c-1.1,3.5-2.8,9.9-5.3,19.1c0,1.2,0,3.2-0.1,5.9c-0.1,1.6-0.6,3.4-1.5,5.2c0.2,0.2,1.3,0.6,3.2,1c1.2,0.2,1.8,0.4,2.1,0.4
		c0.6,0,2.3-0.1,5.2-0.3l6.9-0.4c2.1-0.1,7-0.1,14.8-0.1c0.7,0,1.9,0.1,3.5,0.4c1.6,0.3,2.7,0.4,3.5,0.4c1.2,0,1.9-0.1,2.2-0.4
		c0.4,0.4,0.6,0.8,0.6,1.3c0,0.3-0.1,0.6-0.4,1.2c-0.2,0.5-0.3,1-0.2,1.3c-0.1,0.8,0,1.7,0.1,2.9c0.1,0.3,0.4,1,0.9,2.1
		C446.7,86.1,447,86.8,447,87z"/>
</g>
<g>
	<g>
		<path d="M346.7,52c-0.1-10.8-1.2-21.4-3-32c-0.3-1.9-3.2-1.1-2.9,0.8c1.8,10.3,2.7,20.8,2.9,31.2C343.7,53.9,346.7,53.9,346.7,52
			L346.7,52z"/>
	</g>
</g>
<g>
	<g>
		<path d="M192.4,48.7c1.2-8.5,2.5-17.1,3.7-25.6c0.3-1.9-2.6-2.7-2.9-0.8c-1.2,8.5-2.5,17.1-3.7,25.6
			C189.2,49.7,192.1,50.6,192.4,48.7L192.4,48.7z"/>
	</g>
</g>
</svg>
