<?xml version="1.0" encoding="utf-8"?>
<!-- Generator: Adobe Illustrator 22.1.0, SVG Export Plug-In . SVG Version: 6.00 Build 0)  -->
<svg version="1.1" xmlns="http://www.w3.org/2000/svg" xmlns:xlink="http://www.w3.org/1999/xlink" x="0px" y="0px"
	 viewBox="0 0 524 522" style="enable-background:new 0 0 524 522;" xml:space="preserve">
<style type="text/css">
	.st0{display:none;}
	.st1{display:inline;}
	.st2{fill:none;}
	.st3{fill:#FFFFFF;}
</style>
<g id="esreal_logo" class="st0">
	<g class="st1">
		<g>
			<path d="M355.8,338.6c-2.2,0-4,0.9-5.4,2.6c-1.3,1.8-1.9,4.3-1.8,7.7c0,3.2,0.7,5.6,2.2,7c1.5,1.5,3.1,2.2,4.9,2.2
				s3.5-0.7,4.9-2.2c1.5-1.5,2.2-3.8,2.2-7c0.1-3.4-0.5-5.9-1.8-7.7C359.8,339.4,358,338.6,355.8,338.6z"/>
		</g>
		<g>
			<path d="M169.9,301.2c-1.4-5.3-4.5-9.6-9.3-12.9s-11.4-5.1-19.6-5.4c-8.3-0.3-18.1,1.8-29.4,6.3c1.1-0.1,2.2-0.2,3.4-0.2
				c1.1,0,2.3,0,3.6,0c6.4,0,11,1.5,13.7,4.5c2.7,3,4.1,7.1,4.4,12.2c0.3,5.1-0.2,11.1-1.6,18c-1.3,6.9-2.8,14.1-4.3,21.6
				c10.4-2.7,18.7-6.5,24.9-11.5s10.5-10.4,12.9-16.1C170.8,312,171.3,306.5,169.9,301.2z"/>
		</g>
		<g>
			<path d="M275.4,350c2.7-0.6,4.2-2.2,4.5-4.7c0.1-1.1-0.1-2.1-0.7-2.8c-0.6-0.8-1.5-1.3-2.5-1.7c-1.1-0.3-2.1-0.4-3.3-0.2
				c-1.1,0.2-2.2,0.7-3.1,1.6c-1.1,0.7-2,1.8-2.5,3.1c-0.6,1.4-1,2.9-1.3,4.6C269.7,350.6,272.7,350.6,275.4,350z"/>
		</g>
		<g>
			<path d="M262,0.3C117.3,0.3,0,117.6,0,262.3s117.3,262,262,262s262-117.3,262-262S406.7,0.3,262,0.3z M305.8,148.9
				c3.3-2.7,7.1-4.8,11.5-6.3s9.1-2.2,14.2-2.2c10.1,0,18.2,2.4,24.5,7.1c6.2,4.8,10.1,11.1,11.7,19.1c0.7,4.5,0.3,7.4-1.3,8.6
				c-1.5,1.3-3.4,1.2-5.7-0.2c-2.4-1.3-5.8-2.1-10.2-2.6c-4.4-0.5-9-0.6-13.8-0.3c-2,0.1-4.1,0.3-6.3,0.5c-2.2,0.2-4.3,0.5-6.2,0.9
				c-1.9,0.4-3.4,0.9-4.6,1.5s-1.6,1.3-1.4,2.1c0.3,1.1,2.3,1.6,6.1,1.4s8.5-0.7,14.3-1.4c2.8-0.3,6-0.3,9.6-0.2s7,0.7,10.3,1.8
				s6.2,2.7,8.6,4.9s4,5.2,4.7,9s0.5,7.8-0.7,12.1s-3.4,8.2-6.5,11.9c-3.1,3.6-7.3,6.7-12.5,9.1c-5.2,2.4-11.4,3.7-18.7,3.9
				c-7.8,0.1-14.2-0.8-19.1-2.9c-4.9-2.1-8.7-4.8-11.4-8c-2.7-3.2-4.5-6.7-5.2-10.4c-0.8-3.7-0.8-7.1-0.1-10.2
				c0.7-3.9,1.7-6.1,2.9-6.4c1.3-0.3,3.3,0,6.1,1.2c2.1,0.8,4.5,1.6,7.2,2.3s6.5,1,11.2,1c2.4,0,4.8-0.1,7.2-0.2
				c2.4-0.1,4.7-0.5,6.8-0.9c2.1-0.5,4-1.1,5.6-1.9c1.6-0.8,2.7-1.8,3.3-3c0.7-1.5-0.5-2.2-3.6-1.9s-8.1,1.1-15.1,2.3
				c-5.2,1-9.9,1.2-14.3,0.5c-4.3-0.6-8.1-1.8-11.1-3.6c-3.1-1.7-5.5-4.1-7.1-7c-1.7-2.9-2.4-6.2-2.1-9.9c0.3-4.3,1.4-8.4,3.4-12.1
				C299.9,154.9,302.5,151.7,305.8,148.9z M253.5,410.7c-0.4,2.4-1.7,5.1-3.9,8.1c-2.2,2.9-5,5.9-8.6,8.8s-7.5,5.4-11.9,7.3
				c-4.3,2-8.9,3.2-13.8,3.7c-4.8,0.5-9.6-0.2-14.4-2.1c-4.8-1.9-9.3-5.2-13.6-10s-8.2-11.5-11.6-20.2c-3.9-10.1-7.6-17.9-10.9-23.4
				c-3.4-5.5-6.9-9.3-10.5-11.4s-7.7-2.8-12.2-2s-9.7,2.4-15.8,4.9c-0.3,4.3-0.4,8.6-0.2,12.7c0.1,4.1,0.3,8,0.6,11.7
				c0.4,8.3,0.3,14.7-0.2,19.2c-0.6,4.5-3.1,6.8-7.6,6.8c-2.1,0-4.3-0.2-6.7-0.7c-2.4-0.5-4.8-1.6-7.2-3.3c-2.5-1.7-4.8-4-7.1-7
				c-2.3-3-4.4-7.1-6.3-12.3c-1.9-5.2-3.5-11.5-4.7-19c-1.3-7.5-2-16.5-2.3-27c-0.3-8.1-0.3-15.3,0-21.5s0.8-11.7,1.7-16.3
				c0.8-4.6,1.9-8.6,3.1-11.9c1.3-3.3,2.7-6,4.4-8.1c-13,7.6-20.8,15.6-23.4,24.3c-2.6,8.6-0.3,17.1,6.8,25.5
				c4.1,4.9,6,9.3,5.8,13.2c-0.2,3.9-1.7,7.1-4.5,9.7c-2.8,2.5-6.5,4.2-11,5.1c-4.6,0.9-9.2,0.8-13.9-0.3c-4.7-1.1-9-3.3-12.9-6.5
				s-6.6-7.8-8-13.6c-2.1-8.4-1.9-16.8,0.6-25.3s7.2-16.6,14.1-24.5c6.9-7.8,15.9-15.2,27.1-21.9c11.2-6.8,24.4-12.8,39.5-18
				s28.5-8.6,40.1-10.4c5.7-0.9,11.1-1.4,16-1.6c-6.3-4-11.7-8.9-16.3-14.7s-7.8-12.5-9.7-20.1c-1.5-6-1.6-11.8-0.3-17.4
				c1.3-5.6,3.5-10.7,6.6-15.3s6.9-8.6,11.4-11.9c4.5-3.3,9.3-5.6,14.4-7c-6.2-2.9-10.9-7-14.2-12.3c-3.3-5.2-5.1-10.9-5.5-16.9
				s0.7-12.1,3.3-18.3c2.5-6.2,6.6-11.8,12.3-16.8s12.9-9.1,21.6-12.3c8.7-3.1,19.1-4.7,31-4.7c17.1,0,31.1,2.2,42.2,6.6
				s19.4,10,25.1,16.9s8.8,14.5,9.5,22.9s-0.9,16.5-4.5,24.4c-2.7,5.7-6.2,10-10.5,12.9s-8.9,4.7-13.8,5.5
				c-4.8,0.8-9.6,0.7-14.4-0.3c-4.8-1-8.9-2.5-12.5-4.6s-6.2-4.6-8-7.6c-1.8-2.9-2-5.9-0.7-9c2.4-5.7,3.2-10.7,2.5-14.9
				s-2.3-7.7-4.9-10.4c-2.6-2.7-5.9-4.7-9.9-5.9c-4-1.2-8.1-1.6-12.4-1.4c-4.3,0.3-8.4,1.3-12.4,3.2c-4,1.8-7.3,4.4-10,7.8
				c-1.8,2.4-2.9,5-3.3,7.8c-0.4,2.8,0.2,5.5,1.7,8s3.8,4.8,7.1,6.8s7.6,3.5,12.9,4.3c7.6-1.7,13.5-1.5,17.8,0.6s6.7,5.8,7.1,11.1
				c0.1,3.2-0.5,6-2,8.3s-3.6,4.1-6.4,5.2c-2.8,1.2-6.2,1.6-10.1,1.3c-3.9-0.3-8.2-1.6-12.8-3.9c-4.1,0.1-8.3,0.9-12.6,2.4
				s-8.2,3.5-11.7,6.1c-3.4,2.6-6,5.7-7.7,9.2c-1.7,3.6-1.8,7.5-0.4,11.9c1.5,4.6,4.2,8,8,10.2s8.2,3.4,13.1,3.6
				c5,0.2,10.3-0.5,15.9-2c5.6-1.5,11-3.6,16.3-6.3c5.2-2.7,10-5.8,14.3-9.3c4.3-3.6,7.6-7.3,10-11.2c2.7-4.6,6.1-7,10.4-7.2
				c4.3-0.2,8.3,1.2,12.1,4.1c3.8,2.9,6.8,7.2,9.1,12.8c2.3,5.6,2.8,12,1.4,19.3s-4.2,13.6-8.5,19s-9.5,9.8-15.5,13.2
				c-6.1,3.4-12.8,5.9-20.2,7.6c-7.3,1.6-14.9,2.2-22.6,1.9c-0.1,0-0.2,0-0.3,0c1.4,1.4,2.6,2.9,3.6,4.5c2.8,4.4,4.4,9.3,4.8,14.6
				c0.4,5.3-0.1,10.6-1.7,16c-1.7,6.2-4.8,12.1-9.2,18c-4.5,5.8-9.3,11.1-14.6,15.9c-5.2,4.8-10.4,8.9-15.5,12.4s-9.3,6-12.5,7.6
				c2.5-0.7,5.8-1.2,9.9-1.5c4.1-0.3,8.4,0.2,13.1,1.5c4.7,1.3,9.4,3.5,14.2,6.7s9,8,12.6,14.3c3.8,6.6,7.1,11.8,10,15.6
				c2.9,3.9,5.4,6.8,7.6,8.7c2.2,2,4,3.2,5.6,3.8c1.5,0.6,2.9,0.8,4.2,0.8s2.3-0.1,3.3-0.2c0.9-0.1,1.9,0,2.8,0.4
				C253.2,406.5,253.9,408.2,253.5,410.7z M488.3,379.6c-2.5,5.2-6.1,9.5-10.8,12.8c-4.7,3.3-10.5,4.9-17.3,4.9
				c-5.2,0-9.8-0.9-13.9-2.8s-7.6-5-10.5-9.5c-2.9-4.4-5.4-10.2-7.3-17.4c-0.7-2.6-1.3-5.5-1.9-8.5c0,0.9,0,1.9-0.1,2.8
				c-0.4,6.5-1.8,12.4-4.3,17.6s-6.1,9.5-10.8,12.8c-4.7,3.3-10.5,4.9-17.3,4.9c-5,0-9.4-0.7-13-2.1s-6.7-3.2-9.1-5.4
				c-2.5-2.2-4.3-4.6-5.6-7.3c-1.3-2.7-2-5.5-2.1-8.3c-0.1,2.8-1,5.6-2.5,8.4s-3.6,5.3-6.2,7.6c-2.6,2.2-5.7,4.1-9.2,5.5
				c-3.6,1.4-7.5,2-11.7,1.7c-5.3-0.3-10.1-1.5-14.4-3.7s-7.8-5.1-10.7-8.7c-2.5-3.1-4.4-6.7-5.7-10.7c-2.3,5.6-5.8,10.3-10.5,14
				c-7.6,6-17.2,9-28.7,9s-21-3-28.7-9c-7.6-6-12.1-14.6-13.3-25.6c-0.8-7.1-0.5-13.6,1-19.4s4.1-10.8,7.8-14.9
				c3.6-4.1,8.3-7.4,13.9-9.7c5.6-2.3,12-3.5,19.3-3.5c6.9,0,12.9,1,18.1,3.1s9.2,5.3,12,9.7c2,2.9,2.8,6.3,2.5,10.1
				c-0.3,3.8-1.5,7.3-3.7,10.6c-2.2,3.3-5.2,6-9.1,8.2s-8.6,3.1-14.1,2.8c2,1.5,4.7,2.3,8.2,2.3c5.6,0,10.9-1.7,16-5.1
				c4.3-3,7.6-6.9,9.7-11.9c0.7-2.5,1.6-4.8,2.6-6.9c2.5-5.2,5.5-9.4,8.9-12.8s7.1-5.8,11-7.4c3.9-1.5,7.7-2.3,11.3-2.3
				c3.6,0,6.8,0.4,9.5,1.2c2.7,0.8,5,1.8,6.9,3c2,1.3,3.7,2.7,5.2,4.3c1.5,1.6,2.9,3.2,4.2,4.7c2.5-4.5,6.1-7.9,10.8-10.4
				c4.7-2.4,10.3-3.4,16.9-2.8c7.7,0.7,12.8,3.3,15.3,7.9s3.1,11.4,1.7,20.5c-0.6,3.6-0.4,6.4,0.6,8.3s2.3,2.8,4.1,2.8
				c1.7,0,3.6-1,5.7-3c2-2,3.8-5.1,5.3-9.4c0-0.5-0.1-1.1-0.1-1.6c-2-25.3,0.3-44.1,6.7-56.3c6.4-12.2,17.1-18.3,32.1-18.3
				c6.9,0,12.1,1.1,15.6,3.3c3.6,2.2,5.9,5.1,7.1,8.7s1.5,7.9,0.8,12.7c-0.6,4.8-1.6,9.9-3,15.2c-1.4,5.3-2.9,10.7-4.6,16.2
				s-3,10.7-4,15.8c-1,4.9-1,8.7-0.1,11.3c0.9,2.7,2.3,4.2,4.1,4.6c1.8,0.4,3.8-0.3,6-2.3s4-5.1,5.6-9.5c1.7,6.4,2.3,12.9,2,19.4
				C492.2,368.5,490.8,374.4,488.3,379.6z"/>
		</g>
	</g>
</g>
<g id="esreal_logo_copy">
	<g>
		<path class="st2" d="M107.2,365c6.5,1.1,13.2,2.1,20.1,2.9c-6.9-0.9-13.6-2-20-3.3C107.2,364.8,107.2,364.9,107.2,365z"/>
		<path class="st2" d="M151.6,335.6c0-0.1,0-0.2,0-0.4c-4.6-2.1-9.2-4.1-13.7-6.2C142.4,331.3,147,333.5,151.6,335.6z"/>
		<path class="st2" d="M119.8,320.5c-2.3,6.7-4.3,13.4-6.2,19.8c2-6.4,4.2-13,6.6-19.7C120.1,320.6,120,320.5,119.8,320.5z"/>
		<path class="st2" d="M152.6,370.2c0.2,0,0.4,0,0.6,0c-0.6-8.3-1-16.8-1.3-25.5C152,353.4,152.3,361.9,152.6,370.2z"/>
		<path d="M262,0C117.9,0,1,116.9,1,261s116.9,261,261,261s261-116.9,261-261S406.1,0,262,0z M423.6,421.4
			c-1.6,19.3-7.8,36.3-19.9,50.4c-17.7,5.8-35.7,5.1-54.2-0.8c-8.8,17-20.9,30.2-37.2,38.6c-18.3-1.5-34.5-9-49.2-21.3
			c-14.8,12.5-31.1,20.1-49.8,21.6c-16.7-8.4-28.9-21.7-37.8-38.9c-18.3,5.8-36.1,6.6-53.6,1c-12-14-18.1-30.8-19.8-49.9
			c-19.3-1.6-36.3-7.8-50.4-19.9c-5.8-17.7-5.1-35.7,0.8-54.2c-17-8.8-30.2-20.9-38.6-37.2c1.5-18.3,9-34.5,21.3-49.2
			c-12.5-14.8-20.1-31.1-21.6-49.8c8.4-16.7,21.7-28.9,38.9-37.8c-5.8-18.3-6.6-36.1-1-53.6c14-12,30.8-18.1,49.9-19.8
			c1.6-19.3,7.8-36.3,19.9-50.4c17.7-5.8,35.7-5.1,54.2,0.8c8.8-17,20.9-30.2,37.2-38.6c18.3,1.5,34.5,9,49.2,21.3
			c14.8-12.5,31.1-20.1,49.8-21.6c16.7,8.4,28.9,21.7,37.8,38.9c18.3-5.8,36.1-6.6,53.6-1c12,14,18.1,30.8,19.8,49.9
			c19.3,1.6,36.3,7.8,50.4,19.9c5.8,17.7,5.1,35.7-0.8,54.2c17,8.8,30.2,20.9,38.6,37.2c-1.5,18.3-9,34.5-21.3,49.2
			c12.5,14.8,20.1,31.1,21.6,49.8c-8.4,16.7-21.7,28.9-38.9,37.8c5.8,18.3,6.6,36.1,1,53.6C459.5,413.6,442.7,419.7,423.6,421.4z"/>
		<path class="st3" d="M107.2,365c-20.9-3.6-39.4-9-54.8-17c-5.8,18.5-6.6,36.5-0.8,54.2c14.2,12.1,31.1,18.3,50.4,19.9
			C100.5,404.9,102.6,385.8,107.2,365z"/>
		<path class="st3" d="M417.8,157c20.9,3.6,39.4,9,54.8,17c5.8-18.5,6.6-36.5,0.8-54.2c-14.2-12.1-31.1-18.3-50.4-19.9
			C424.4,117.1,422.4,136.2,417.8,157z"/>
		<path class="st3" d="M489.8,260.5c12.3-14.7,19.8-30.9,21.3-49.2c-8.4-16.4-21.6-28.4-38.6-37.2c-5.2,16.3-14.3,33-26.3,50.2
			C463.9,235.4,478.8,247.4,489.8,260.5z"/>
		<path class="st3" d="M35.1,261.5c-12.3,14.7-19.8,30.9-21.3,49.2c8.4,16.4,21.6,28.4,38.6,37.2c5.2-16.3,14.3-33,26.3-50.2
			C61,286.6,46.1,274.6,35.1,261.5z"/>
		<path d="M405.1,201.5c14.9,7.4,28.7,14.9,41.1,22.7c12.1-17.2,21.2-33.9,26.3-50.2c-15.4-8-33.8-13.4-54.8-17
			C414.6,171.1,410.3,186,405.1,201.5z"/>
		<path d="M107.3,364.6c-0.2,0-0.3-0.1-0.5-0.1c1.9-7.8,4.2-15.9,6.8-24.2c1.9-6.5,4-13.1,6.2-19.8c-14.9-7.4-28.7-14.9-41.1-22.7
			C66.7,315,57.5,331.7,52.4,348c15.4,8,33.8,13.4,54.8,17C107.2,364.9,107.2,364.8,107.3,364.6z"/>
		<path class="st3" d="M445.8,297.2c12.2,17.4,21.5,34.3,26.7,50.8c17.2-8.9,30.5-21.1,38.9-37.8c-1.4-18.6-9.1-34.9-21.6-49.8
			C478.7,273.7,463.8,285.8,445.8,297.2z"/>
		<path class="st3" d="M79.1,224.8c-12.2-17.4-21.5-34.3-26.7-50.8c-17.2,8.9-30.5,21.1-38.9,37.8c1.4,18.6,9.1,34.9,21.6,49.8
			C46.2,248.3,61.2,236.2,79.1,224.8z"/>
		<path class="st3" d="M101.3,100.6c-19.1,1.7-35.9,7.8-49.9,19.8c-5.6,17.5-4.8,35.3,1,53.6c15.2-7.9,33.5-13.3,54.2-16.9
			C101.9,136.6,99.9,117.7,101.3,100.6z"/>
		<path class="st3" d="M472.5,348c-15.2,7.9-33.5,13.3-54.2,16.9c4.6,20.5,6.7,39.4,5.2,56.5c19.1-1.7,35.9-7.8,49.9-19.8
			C479.1,384.1,478.3,366.3,472.5,348z"/>
		<path d="M119.6,202.2c-5.3-15.7-9.8-30.8-13-45.1c-20.7,3.6-39,9-54.2,16.9c5.2,16.5,14.5,33.4,26.7,50.8
			C91.3,217,104.9,209.5,119.6,202.2z"/>
		<path d="M405.4,319.8c5.3,15.7,9.8,30.8,13,45.1c20.7-3.6,39-9,54.2-16.9c-5.2-16.5-14.5-33.4-26.7-50.8
			C433.6,305,420,312.5,405.4,319.8z"/>
		<path d="M78.7,297.8c8.4-12,18.3-24.3,29.2-36.8c-10.8-12.3-20.5-24.4-28.8-36.2c-17.9,11.4-32.9,23.5-44,36.8
			C46.1,274.6,61,286.6,78.7,297.8z"/>
		<path d="M446.2,224.2c-8.4,12-18.3,24.3-29.2,36.8c10.8,12.3,20.5,24.4,28.8,36.2c17.9-11.4,32.9-23.5,44-36.8
			C478.8,247.4,463.9,235.4,446.2,224.2z"/>
		<path class="st3" d="M417,261c10.9-12.5,20.8-24.8,29.2-36.8c-12.4-7.8-26.2-15.4-41.1-22.7c-3.6,10.8-7.6,21.9-12,33.3
			C401.5,243.7,409.5,252.4,417,261z"/>
		<path class="st3" d="M107.9,261c-10.9,12.5-20.8,24.8-29.2,36.8c12.4,7.8,26.2,15.4,41.1,22.7c3.6-10.8,7.6-21.9,12-33.3
			C123.4,278.3,115.4,269.6,107.9,261z"/>
		<path class="st3" d="M405.4,319.8c14.6-7.3,28.2-14.8,40.5-22.5c-8.3-11.8-18.1-23.9-28.8-36.2c-7.4,8.5-15.3,17.1-23.6,25.9
			C397.7,298.1,401.8,309.1,405.4,319.8z"/>
		<path class="st3" d="M119.6,202.2c-14.6,7.3-28.2,14.8-40.5,22.5c8.3,11.8,18.1,23.9,28.8,36.2c7.4-8.5,15.3-17.1,23.6-25.9
			C127.2,223.9,123.2,212.9,119.6,202.2z"/>
		<path d="M383,260.7c3.6,8.9,7.1,17.6,10.4,26.2c8.3-8.8,16.2-17.4,23.6-25.9c-7.5-8.6-15.5-17.3-23.9-26.2
			C389.9,243.3,386.5,251.9,383,260.7z"/>
		<path d="M141.9,261.3c-3.6-8.9-7.1-17.6-10.4-26.2c-8.3,8.8-16.2,17.4-23.6,25.9c7.5,8.6,15.5,17.3,23.9,26.2
			C135,278.7,138.4,270.1,141.9,261.3z"/>
		<path class="st3" d="M158.4,105.7c3.6-20.9,9-39.4,17-54.8c-18.5-5.8-36.5-6.6-54.2-0.8c-12.1,14.2-18.3,31.1-19.9,50.4
			C118.5,99.1,137.7,101.1,158.4,105.7z"/>
		<path class="st3" d="M366.5,416.3c-3.6,20.9-9,39.4-17,54.8c18.5,5.8,36.5,6.6,54.2,0.8c12.1-14.2,18.3-31.1,19.9-50.4
			C406.4,422.9,387.2,420.9,366.5,416.3z"/>
		<path class="st3" d="M263,488.4c14.7,12.3,30.9,19.8,49.2,21.3c16.4-8.4,28.4-21.6,37.2-38.6c-16.3-5.2-33-14.3-50.2-26.3
			C288,462.5,276.1,477.3,263,488.4z"/>
		<path class="st3" d="M261.9,33.6c-14.7-12.3-30.9-19.8-49.2-21.3c-16.4,8.4-28.4,21.6-37.2,38.6c16.3,5.2,33,14.3,50.2,26.3
			C236.9,59.5,248.8,44.7,261.9,33.6z"/>
		<path d="M203,118.4c7.4-14.9,14.9-28.7,22.7-41.1c-17.2-12.1-33.9-21.2-50.2-26.3c-8,15.4-13.4,33.8-17,54.8
			C172.6,108.9,187.5,113.2,203,118.4z"/>
		<path d="M321.9,403.6c-7.4,14.9-14.9,28.7-22.7,41.1c17.2,12.1,33.9,21.2,50.2,26.3c8-15.4,13.4-33.8,17-54.8
			C352.4,413.1,337.5,408.8,321.9,403.6z"/>
		<path d="M418.4,364.9c-14.4,2.5-30.1,4.2-46.7,5.4c-1.1,16.3-2.8,31.8-5.2,46c20.7,4.6,39.9,6.7,57.1,5.1
			C425.1,404.3,423,385.4,418.4,364.9z"/>
		<path d="M106.5,157.1c14.4-2.5,30.1-4.2,46.7-5.4c1.1-16.3,2.8-31.8,5.2-46c-20.7-4.6-39.9-6.7-57.1-5.1
			C99.9,117.7,101.9,136.6,106.5,157.1z"/>
		<path class="st3" d="M153.2,151.7c-16.6,1.1-32.2,2.8-46.7,5.4c3.2,14.3,7.7,29.4,13,45.1c10.2-5.1,20.9-10.1,32-15.1
			C151.9,174.9,152.4,163.1,153.2,151.7z"/>
		<path class="st3" d="M373.4,334.9c-0.3,12.2-0.8,24-1.6,35.4c16.6-1.1,32.2-2.8,46.7-5.4c-3.2-14.3-7.7-29.4-13-45.1
			C395.2,324.9,384.5,329.9,373.4,334.9z"/>
		<path class="st3" d="M321.9,403.6c15.5,5.2,30.4,9.5,44.6,12.7c2.5-14.3,4.1-29.7,5.2-46c-11.2,0.8-22.9,1.3-35,1.6
			C331.8,382.9,326.9,393.5,321.9,403.6z"/>
		<path class="st3" d="M203,118.4c-15.5-5.2-30.4-9.5-44.6-12.7c-2.5,14.3-4.1,29.7-5.2,46c11.2-0.8,22.9-1.3,35-1.6
			C193.1,139.1,198,128.5,203,118.4z"/>
		<path d="M347.9,346c-3.7,8.8-7.4,17.4-11.2,25.8c12.1-0.3,23.7-0.8,35-1.6c0.8-11.4,1.3-23.2,1.6-35.4
			C365.1,338.6,356.6,342.3,347.9,346z"/>
		<path d="M177,176c3.7-8.8,7.4-17.4,11.2-25.8c-12.1,0.3-23.7,0.8-35,1.6c-0.8,11.4-1.3,23.2-1.6,35.4
			C159.8,183.4,168.3,179.7,177,176z"/>
		<path d="M151.1,214.9c0.1-9.4,0.2-18.7,0.5-27.8c-11.1,5-21.8,10-32,15.1c3.6,10.7,7.7,21.7,12,32.9
			C137.9,228.4,144.4,221.7,151.1,214.9z"/>
		<path d="M373.9,307.1c-0.1,9.4-0.2,18.7-0.5,27.8c11.1-5,21.8-10,32-15.1c-3.6-10.7-7.7-21.7-12-32.9
			C387.1,293.6,380.6,300.3,373.9,307.1z"/>
		<path class="st3" d="M151.1,214.9c-6.7,6.8-13.2,13.6-19.5,20.3c3.3,8.6,6.8,17.3,10.4,26.2c2.9-7.3,6-14.8,9-22.3
			C151,230.8,151,222.8,151.1,214.9z"/>
		<path class="st3" d="M373.9,307.1c6.7-6.8,13.2-13.6,19.5-20.3c-3.3-8.6-6.8-17.3-10.4-26.2c-2.9,7.3-6,14.8-9,22.3
			C374,291.2,373.9,299.2,373.9,307.1z"/>
		<path class="st3" d="M357.1,324.1c-3.1,7.4-6.1,14.8-9.2,22c8.7-3.7,17.2-7.4,25.4-11.1c0.2-9.1,0.4-18.3,0.5-27.8
			C368.4,312.7,362.8,318.4,357.1,324.1z"/>
		<path class="st3" d="M177,176c-8.7,3.7-17.2,7.4-25.4,11.1c-0.2,9.1-0.4,18.3-0.5,27.8c5.5-5.6,11.1-11.2,16.7-16.9
			C170.9,190.5,174,183.2,177,176z"/>
		<path d="M373.9,307.1c0.1-7.9,0.1-16,0.1-24.1c3.1-7.5,6.1-15,9-22.3c-2.9-7.2-6-14.6-9-22c0-8-0.1-16-0.1-23.8
			c-5.5-5.7-11.2-11.4-16.9-17.1c-3.1-7.5-6.3-14.9-9.4-22.2c-7.2-3-14.5-6.1-22-9.2c-5.7-5.7-11.3-11.3-16.9-16.7
			c-7.9-0.1-16-0.1-24.1-0.1c-7.5-3.1-15-6.1-22.3-9c-7.2,2.9-14.6,6-22,9c-8,0-16,0.1-23.8,0.1c-5.7,5.5-11.4,11.2-17.1,16.9
			c-7.5,3.1-14.9,6.3-22.2,9.4c-3,7.2-6.1,14.5-9.2,22c-5.7,5.7-11.3,11.3-16.7,16.9c-0.1,7.9-0.1,16-0.1,24.1
			c-3.1,7.5-6.1,15-9,22.3c2.9,7.2,6,14.6,9,22c0,8,0.1,16,0.1,23.8c5.5,5.7,11.2,11.4,16.9,17.1c3.1,7.5,6.3,14.9,9.4,22.2
			c7.2,3,14.5,6.1,22,9.2c5.7,5.7,11.3,11.3,16.9,16.7c7.9,0.1,16,0.1,24.1,0.1c7.5,3.1,15,6.1,22.3,9c7.2-2.9,14.6-6,22-9
			c8,0,16-0.1,23.8-0.1c5.7-5.5,11.4-11.2,17.1-16.9c7.5-3.1,14.9-6.3,22.2-9.4c3-7.2,6.1-14.5,9.2-22
			C362.8,318.4,368.4,312.7,373.9,307.1z M225,350.8c-7.8,2.5-15.4,2.8-22.9,0.4c-5.1-6-7.7-13.2-8.5-21.3
			c-8.3-0.7-15.5-3.3-21.6-8.5c-2.5-7.6-2.2-15.3,0.3-23.2c-7.3-3.8-12.9-8.9-16.5-15.9c0.6-7.8,3.8-14.8,9.1-21
			c-5.3-6.3-8.6-13.3-9.2-21.3c3.6-7.1,9.3-12.3,16.6-16.2c-2.5-7.8-2.8-15.4-0.4-22.9c6-5.1,13.2-7.7,21.3-8.5
			c0.7-8.3,3.3-15.5,8.5-21.6c7.6-2.5,15.3-2.2,23.2,0.3c3.8-7.3,8.9-12.9,15.9-16.5c7.8,0.6,14.8,3.8,21,9.1
			c6.3-5.3,13.3-8.6,21.3-9.2c7.1,3.6,12.3,9.3,16.2,16.6c7.8-2.5,15.4-2.8,22.9-0.4c5.1,6,7.7,13.2,8.5,21.3
			c8.3,0.7,15.5,3.3,21.6,8.5c2.5,7.6,2.2,15.3-0.3,23.2c7.3,3.8,12.9,8.9,16.5,15.9c-0.6,7.8-3.8,14.8-9.1,21
			c5.3,6.3,8.6,13.3,9.2,21.3c-3.6,7.1-9.3,12.3-16.6,16.2c2.5,7.8,2.8,15.4,0.4,22.9c-6,5.1-13.2,7.7-21.3,8.5
			c-0.7,8.3-3.3,15.5-8.5,21.6c-7.6,2.5-15.3,2.2-23.2-0.3c-3.8,7.3-8.9,12.9-15.9,16.5c-7.8-0.6-14.8-3.8-21-9.1
			c-6.3,5.3-13.3,8.6-21.3,9.2C234.1,363.8,228.8,358.1,225,350.8z"/>
		<path class="st3" d="M102.1,422.2c1.7,19.1,7.8,35.9,19.8,49.9c17.5,5.6,35.3,4.8,53.6-1c-7.9-15.2-13.3-33.5-16.9-54.2
			C138.1,421.5,119.1,423.6,102.1,422.2z"/>
		<path class="st3" d="M422.9,99.8C421.2,80.7,415,64,403.1,50c-17.5-5.6-35.3-4.8-53.6,1c7.9,15.2,13.3,33.5,16.9,54.2
			C386.9,100.5,405.8,98.4,422.9,99.8z"/>
		<path class="st3" d="M298.7,77.6c17.4-12.2,34.3-21.5,50.8-26.7c-8.9-17.2-21.1-30.5-37.8-38.9c-18.6,1.4-34.9,9.1-49.8,21.6
			C275.2,44.7,287.3,59.7,298.7,77.6z"/>
		<path class="st3" d="M226.2,444.4c-17.4,12.2-34.3,21.5-50.8,26.7c8.9,17.2,21.1,30.5,37.8,38.9c18.6-1.4,34.9-9.1,49.8-21.6
			C249.7,477.3,237.6,462.3,226.2,444.4z"/>
		<path d="M203.7,403.9c-15.7,5.3-30.8,9.8-45.1,13c3.6,20.7,9,39,16.9,54.2c16.5-5.2,33.4-14.5,50.8-26.7
			C218.4,432.1,211,418.6,203.7,403.9z"/>
		<path d="M321.3,118.1c15.7-5.3,30.8-9.8,45.1-13c-3.6-20.7-9-39-16.9-54.2c-16.5,5.2-33.4,14.5-50.8,26.7
			C306.5,89.9,313.9,103.4,321.3,118.1z"/>
		<path d="M366.4,105.1c2.5,14.4,4.2,30.1,5.4,46.7c16.3,1.1,31.8,2.8,46,5.2c4.6-20.7,6.7-39.9,5.1-57.1
			C405.8,98.4,386.9,100.5,366.4,105.1z"/>
		<path d="M158.6,416.9c-2.5-14.4-4.2-30.1-5.4-46.7c-0.2,0-0.4,0-0.6,0c0,0.2,0,0.4,0,0.5c-8.7-0.8-17.2-1.7-25.4-2.8
			c-6.9-0.8-13.6-1.8-20.1-2.9c-4.6,20.7-6.7,39.9-5.1,57.1C119.1,423.6,138.1,421.5,158.6,416.9z"/>
		<path class="st3" d="M405.1,201.5c5.2-15.5,9.5-30.4,12.7-44.6c-14.3-2.5-29.7-4.1-46-5.2c0.8,11.2,1.3,22.9,1.6,35
			C384.4,191.6,395,196.5,405.1,201.5z"/>
		<path class="st3" d="M151.6,335.6c-4.7-2.2-9.2-4.4-13.7-6.6c-6-2.8-11.9-5.6-17.7-8.4c-2.4,6.7-4.6,13.2-6.6,19.7
			c-2.6,8.3-4.9,16.4-6.8,24.2c0.2,0,0.3,0.1,0.5,0.1c6.4,1.2,13.1,2.3,20,3.3c8.2,1.1,16.6,2.1,25.4,2.8c0-0.2,0-0.4,0-0.5
			c-0.4-8.3-0.6-16.8-0.7-25.5C151.8,341.7,151.7,338.7,151.6,335.6z"/>
		<path class="st3" d="M371.7,151.7c-1.1-16.6-2.8-32.2-5.4-46.7c-14.3,3.2-29.4,7.7-45.1,13c5.1,10.2,10.1,20.9,15.1,32
			C348.6,150.4,360.4,151,371.7,151.7z"/>
		<path class="st3" d="M153.2,370.3c1.1,16.6,2.8,32.2,5.4,46.7c14.3-3.2,29.4-7.7,45.1-13c-5.1-10.2-10.1-20.9-15.1-32
			C176.4,371.6,164.6,371,153.2,370.3z"/>
		<path d="M177.4,346.5c-8.8-3.7-17.4-7.4-25.8-11.2c0,0.1,0,0.2,0,0.4c0.1,3.1,0.2,6.1,0.3,9.1c0.3,8.7,0.7,17.3,1.3,25.5
			c11.4,0.8,23.2,1.3,35.4,1.6C184.8,363.6,181.1,355.1,177.4,346.5z"/>
		<path d="M347.5,175.5c8.8,3.7,17.4,7.4,25.8,11.2c-0.3-12.1-0.8-23.7-1.6-35c-11.4-0.8-23.2-1.3-35.4-1.6
			C340.1,158.4,343.8,166.9,347.5,175.5z"/>
		<path d="M137.9,329.1c4.5,2.1,9.1,4.1,13.7,6.2c-0.3-9.2-0.4-18.6-0.5-28.1c-6.6-6.7-13.1-13.4-19.3-20
			c-4.3,11.4-8.3,22.5-12,33.3c0.1,0.1,0.3,0.1,0.4,0.2C126,323.5,131.9,326.3,137.9,329.1z"/>
		<path d="M373.9,214.9c6.6,6.7,13.1,13.4,19.3,20c4.3-11.4,8.3-22.5,12-33.3c-10.1-5-20.7-9.9-31.7-14.8
			C373.6,195.9,373.8,205.3,373.9,214.9z"/>
		<path class="st3" d="M141.9,261.3c-3.5,8.8-6.9,17.4-10.1,25.9c6.2,6.6,12.7,13.2,19.3,20c-0.1-7.8-0.1-15.8-0.1-23.8
			C147.9,275.9,144.8,268.5,141.9,261.3z"/>
		<path class="st3" d="M383,260.7c3.5-8.8,6.9-17.4,10.1-25.9c-6.2-6.6-12.7-13.2-19.3-20c0.1,7.8,0.1,15.8,0.1,23.8
			C377.1,246.1,380.1,253.5,383,260.7z"/>
		<path class="st3" d="M151.1,307.1c0.1,9.6,0.3,19,0.5,28.1c8.4,3.7,17,7.4,25.8,11.2c-3.1-7.3-6.2-14.7-9.4-22.2
			C162.3,318.5,156.6,312.8,151.1,307.1z"/>
		<path class="st3" d="M373.9,214.9c-0.1-9.6-0.3-19-0.5-28.1c-8.4-3.7-17-7.4-25.8-11.2c3.1,7.3,6.2,14.7,9.4,22.2
			C362.7,203.5,368.3,209.2,373.9,214.9z"/>
		<path d="M299.2,444.7c-12-8.4-24.3-18.3-36.8-29.2c-12.3,10.8-24.4,20.5-36.2,28.8c11.4,17.9,23.5,32.9,36.8,44
			C276.1,477.3,288,462.5,299.2,444.7z"/>
		<path d="M225.7,77.3c12,8.4,24.3,18.3,36.8,29.2c12.3-10.8,24.4-20.5,36.2-28.8c-11.4-17.9-23.5-32.9-36.8-44
			C248.8,44.7,236.9,59.5,225.7,77.3z"/>
		<path class="st3" d="M203.7,403.9c7.3,14.6,14.8,28.2,22.5,40.5c11.8-8.3,23.9-18.1,36.2-28.8c-8.5-7.4-17.1-15.3-25.9-23.6
			C225.3,396.3,214.3,400.3,203.7,403.9z"/>
		<path class="st3" d="M321.3,118.1c-7.3-14.6-14.8-28.2-22.5-40.5c-11.8,8.3-23.9,18.1-36.2,28.8c8.5,7.4,17.1,15.3,25.9,23.6
			C299.6,125.7,310.6,121.7,321.3,118.1z"/>
		<path class="st3" d="M262.5,415.5c12.5,10.9,24.8,20.8,36.8,29.2c7.8-12.4,15.4-26.2,22.7-41.1c-10.8-3.6-21.9-7.6-33.3-12
			C279.8,400,271.1,408,262.5,415.5z"/>
		<path class="st3" d="M262.5,106.5c-12.5-10.9-24.8-20.8-36.8-29.2c-7.8,12.4-15.4,26.2-22.7,41.1c10.8,3.6,21.9,7.6,33.3,12
			C245.2,122,253.9,114,262.5,106.5z"/>
		<path d="M262.8,381.6c-8.9,3.6-17.6,7.1-26.2,10.4c8.8,8.3,17.4,16.2,25.9,23.6c8.6-7.5,17.3-15.5,26.2-23.9
			C280.1,388.4,271.5,385.1,262.8,381.6z"/>
		<path d="M262.2,140.4c8.9-3.6,17.6-7.1,26.2-10.4c-8.8-8.3-17.4-16.2-25.9-23.6c-8.6,7.5-17.3,15.5-26.2,23.9
			C244.8,133.6,253.4,136.9,262.2,140.4z"/>
		<path d="M308.6,149.6c9.4,0.1,18.7,0.2,27.8,0.5c-5-11.1-10-21.8-15.1-32c-10.7,3.6-21.7,7.7-32.9,12
			C295,136.4,301.8,142.9,308.6,149.6z"/>
		<path d="M216.3,372.4c-9.4-0.1-18.7-0.2-27.8-0.5c5,11.1,10,21.8,15.1,32c10.7-3.6,21.7-7.7,32.9-12
			C229.9,385.6,223.2,379.1,216.3,372.4z"/>
		<path class="st3" d="M177.4,346.5c3.7,8.7,7.4,17.2,11.1,25.4c9.1,0.2,18.3,0.4,27.8,0.5c-5.6-5.5-11.2-11.1-16.9-16.7
			C192,352.6,184.6,349.5,177.4,346.5z"/>
		<path class="st3" d="M347.5,175.5c-3.7-8.7-7.4-17.2-11.1-25.4c-9.1-0.2-18.3-0.4-27.8-0.5c5.6,5.5,11.2,11.1,16.9,16.7
			C333,169.4,340.3,172.5,347.5,175.5z"/>
		<path class="st3" d="M308.6,149.6c-6.8-6.7-13.6-13.2-20.3-19.5c-8.6,3.3-17.3,6.8-26.2,10.4c7.3,2.9,14.8,6,22.3,9
			C292.7,149.5,300.7,149.5,308.6,149.6z"/>
		<path class="st3" d="M216.3,372.4c6.8,6.7,13.6,13.2,20.3,19.5c8.6-3.3,17.3-6.8,26.2-10.4c-7.3-2.9-14.8-6-22.3-9
			C232.3,372.5,224.2,372.5,216.3,372.4z"/>
		<path d="M216.3,149.6c6.7-6.6,13.4-13.1,20-19.3c-11.4-4.3-22.5-8.3-33.3-12c-5,10.1-9.9,20.7-14.8,31.7
			C197.4,149.9,206.8,149.7,216.3,149.6z"/>
		<path d="M308.6,372.4c-6.7,6.6-13.4,13.1-20,19.3c11.4,4.3,22.5,8.3,33.3,12c5-10.1,9.9-20.7,14.8-31.7
			C327.6,372.1,318.2,372.3,308.6,372.4z"/>
		<path class="st3" d="M262.2,140.4c-8.8-3.5-17.4-6.9-25.9-10.1c-6.6,6.2-13.2,12.7-20,19.3c7.8-0.1,15.8-0.1,23.8-0.1
			C247.6,146.4,254.9,143.4,262.2,140.4z"/>
		<path class="st3" d="M262.8,381.6c8.8,3.5,17.4,6.9,25.9,10.1c6.6-6.2,13.2-12.7,20-19.3c-7.8,0.1-15.8,0.1-23.8,0.1
			C277.4,375.6,270,378.6,262.8,381.6z"/>
		<path class="st3" d="M308.6,372.4c9.6-0.1,19-0.3,28.1-0.5c3.7-8.4,7.4-17,11.2-25.8c-7.3,3.1-14.7,6.2-22.2,9.4
			C320,361.2,314.3,366.8,308.6,372.4z"/>
		<path class="st3" d="M216.3,149.6c-9.6,0.1-19,0.3-28.1,0.5c-3.7,8.4-7.4,17-11.2,25.8c7.3-3.1,14.7-6.2,22.2-9.4
			C205,160.8,210.7,155.2,216.3,149.6z"/>
		<path class="st3" d="M195.8,305.5c-9-1.6-16.8-3.9-23.4-7.3c-2.5,7.9-2.8,15.6-0.3,23.2c6.1,5.2,13.3,7.8,21.6,8.5
			C193,322.5,193.9,314.3,195.8,305.5z"/>
		<path class="st3" d="M328.6,216.5c9,1.6,16.8,3.9,23.4,7.3c2.5-7.9,2.8-15.6,0.3-23.2c-6.1-5.2-13.3-7.8-21.6-8.5
			C331.4,199.5,330.5,207.7,328.6,216.5z"/>
		<path class="st3" d="M359.4,260.8c5.2-6.3,8.5-13.2,9.1-21c-3.6-7-9.2-12.1-16.5-15.9c-2.2,7-6.1,14.1-11.3,21.5
			C348.3,250.1,354.6,255.2,359.4,260.8z"/>
		<path class="st3" d="M165,261.2c-5.2,6.3-8.5,13.2-9.1,21c3.6,7,9.2,12.1,16.5,15.9c2.2-7,6.1-14.1,11.3-21.5
			C176.1,271.9,169.8,266.8,165,261.2z"/>
		<path d="M323.1,235.6c6.4,3.1,12.3,6.4,17.6,9.7c5.2-7.3,9.1-14.5,11.3-21.5c-6.6-3.4-14.5-5.7-23.4-7.3
			C327.2,222.6,325.4,228.9,323.1,235.6z"/>
		<path class="st3" d="M340.6,276.5c5.2,7.4,9.2,14.6,11.4,21.7c7.3-3.8,13-9,16.6-16.2c-0.6-7.9-3.9-14.9-9.2-21.3
			C354.6,266.4,348.2,271.6,340.6,276.5z"/>
		<path class="st3" d="M183.8,245.5c-5.2-7.4-9.2-14.6-11.4-21.7c-7.3,3.8-13,9-16.6,16.2c0.6,7.9,3.9,14.9,9.2,21.3
			C169.8,255.6,176.2,250.4,183.8,245.5z"/>
		<path class="st3" d="M193.3,192.5c-8.2,0.7-15.3,3.3-21.3,8.5c-2.4,7.5-2.1,15.1,0.4,22.9c6.5-3.4,14.3-5.7,23.1-7.2
			C193.6,207.8,192.7,199.8,193.3,192.5z"/>
		<path class="st3" d="M331.1,329.5c8.2-0.7,15.3-3.3,21.3-8.5c2.4-7.5,2.1-15.1-0.4-22.9c-6.5,3.4-14.3,5.7-23.1,7.2
			C330.8,314.2,331.7,322.2,331.1,329.5z"/>
		<path d="M201.1,235.9c-2.3-6.7-4.2-13.2-5.6-19.3c-8.8,1.6-16.6,3.8-23.1,7.2c2.2,7.1,6.2,14.3,11.4,21.7
			C189.1,242.2,194.9,239,201.1,235.9z"/>
		<path d="M323.3,286.1c2.3,6.7,4.2,13.2,5.6,19.3c8.8-1.6,16.6-3.8,23.1-7.2c-2.2-7.1-6.2-14.3-11.4-21.7
			C335.3,279.8,329.5,283,323.3,286.1z"/>
		<path d="M183.7,276.7c3.6-5.1,7.8-10.4,12.5-15.7c-4.6-5.3-8.8-10.4-12.3-15.5c-7.7,4.9-14.1,10-18.8,15.7
			C169.8,266.8,176.1,271.9,183.7,276.7z"/>
		<path d="M340.7,245.3c-3.6,5.1-7.8,10.4-12.5,15.7c4.6,5.3,8.8,10.4,12.3,15.5c7.7-4.9,14.1-10,18.8-15.7
			C354.6,255.2,348.3,250.1,340.7,245.3z"/>
		<path class="st3" d="M328.2,261c4.7-5.3,8.9-10.6,12.5-15.7c-5.3-3.4-11.2-6.6-17.6-9.7c-1.5,4.6-3.3,9.4-5.1,14.2
			C321.6,253.6,325,257.3,328.2,261z"/>
		<path class="st3" d="M183.7,276.7c5.3,3.4,11.2,6.6,17.6,9.7c1.5-4.6,3.3-9.4,5.1-14.2c-3.6-3.8-7-7.5-10.2-11.2
			C191.5,266.3,187.3,271.6,183.7,276.7z"/>
		<path class="st3" d="M323.3,286.1c6.3-3.1,12.1-6.3,17.3-9.6c-3.6-5.1-7.7-10.2-12.3-15.5c-3.2,3.6-6.5,7.3-10.1,11.1
			C320,276.9,321.7,281.6,323.3,286.1z"/>
		<path class="st3" d="M201.1,235.9c-6.3,3.1-12.1,6.3-17.3,9.6c3.6,5.1,7.7,10.2,12.3,15.5c3.2-3.6,6.5-7.3,10.1-11.1
			C204.4,245.1,202.7,240.4,201.1,235.9z"/>
		<path d="M313.7,260.9c1.5,3.8,3,7.5,4.4,11.2c3.5-3.7,6.9-7.4,10.1-11.1c-3.2-3.7-6.6-7.4-10.2-11.2
			C316.7,253.4,315.2,257.1,313.7,260.9z"/>
		<path d="M206.3,249.9c-3.5,3.7-6.9,7.4-10.1,11.1c3.2,3.7,6.6,7.4,10.2,11.2c1.4-3.6,2.8-7.3,4.3-11.1
			C209.1,257.3,207.7,253.6,206.3,249.9z"/>
		<path class="st3" d="M217.7,194.6c1.6-9,3.9-16.8,7.3-23.4c-7.9-2.5-15.6-2.8-23.2-0.3c-5.2,6.1-7.8,13.3-8.5,21.6
			C200.7,191.8,208.9,192.7,217.7,194.6z"/>
		<path class="st3" d="M306.7,327.4c-1.6,9-3.9,16.8-7.3,23.4c7.9,2.5,15.6,2.8,23.2,0.3c5.2-6.1,7.8-13.3,8.5-21.6
			C323.7,330.2,315.5,329.3,306.7,327.4z"/>
		<path class="st3" d="M262.4,358.2c6.3,5.2,13.2,8.5,21,9.1c7-3.6,12.1-9.2,15.9-16.5c-7-2.2-14.1-6.1-21.5-11.3
			C273.1,347.1,268,353.4,262.4,358.2z"/>
		<path class="st3" d="M262,163.8c-6.3-5.2-13.2-8.5-21-9.1c-7,3.6-12.1,9.2-15.9,16.5c7,2.2,14.1,6.1,21.5,11.3
			C251.3,174.9,256.4,168.6,262,163.8z"/>
		<path d="M236.8,200.1c3.1-6.4,6.4-12.3,9.7-17.6c-7.3-5.2-14.5-9.1-21.5-11.3c-3.4,6.6-5.7,14.5-7.3,23.4
			C223.8,196,230.1,197.8,236.8,200.1z"/>
		<path d="M287.6,321.9c-3.1,6.4-6.4,12.3-9.7,17.6c7.3,5.2,14.5,9.1,21.5,11.3c3.4-6.6,5.7-14.5,7.3-23.4
			C300.6,326,294.3,324.2,287.6,321.9z"/>
		<path d="M328.8,305.4c-6.2,1.1-12.9,1.8-19.9,2.3c-0.5,7-1.2,13.6-2.2,19.7c8.9,2,17,2.8,24.4,2.2
			C331.7,322.2,330.8,314.2,328.8,305.4z"/>
		<path d="M195.6,216.6c6.2-1.1,12.9-1.8,19.9-2.3c0.5-7,1.2-13.6,2.2-19.7c-8.9-2-17-2.8-24.4-2.2
			C192.7,199.8,193.6,207.8,195.6,216.6z"/>
		<path class="st3" d="M215.5,214.3c-7.1,0.5-13.8,1.2-19.9,2.3c1.4,6.1,3.3,12.6,5.6,19.3c4.4-2.2,8.9-4.3,13.7-6.5
			C215,224.2,215.2,219.2,215.5,214.3z"/>
		<path class="st3" d="M308.9,307.7c7.1-0.5,13.8-1.2,19.9-2.3c-1.4-6.1-3.3-12.6-5.6-19.3c-4.4,2.2-8.9,4.3-13.7,6.5
			C309.4,297.8,309.2,302.8,308.9,307.7z"/>
		<path class="st3" d="M287.6,321.9c6.6,2.2,13,4.1,19,5.4c1.1-6.1,1.8-12.7,2.2-19.7c-4.8,0.3-9.8,0.5-15,0.7
			C291.8,313.1,289.7,317.6,287.6,321.9z"/>
		<path class="st3" d="M236.8,200.1c-6.6-2.2-13-4.1-19-5.4c-1.1,6.1-1.8,12.7-2.2,19.7c4.8-0.3,9.8-0.5,15-0.7
			C232.6,208.9,234.7,204.4,236.8,200.1z"/>
		<path d="M298.7,297.3c-1.6,3.8-3.2,7.5-4.8,11c5.2-0.1,10.1-0.4,15-0.7c0.3-4.9,0.5-9.9,0.7-15.1
			C306.1,294.2,302.4,295.8,298.7,297.3z"/>
		<path d="M225.7,224.7c1.6-3.8,3.2-7.5,4.8-11c-5.2,0.1-10.1,0.4-15,0.7c-0.3,4.9-0.5,9.9-0.7,15.1
			C218.3,227.8,222,226.2,225.7,224.7z"/>
		<path d="M214.6,241.3c0-4,0.1-8,0.2-11.9c-4.8,2.1-9.3,4.3-13.7,6.5c1.5,4.6,3.3,9.3,5.1,14.1
			C208.9,247.1,211.7,244.2,214.6,241.3z"/>
		<path d="M309.8,280.7c0,4-0.1,8-0.2,11.9c4.8-2.1,9.3-4.3,13.7-6.5c-1.5-4.6-3.3-9.3-5.1-14.1
			C315.5,274.9,312.7,277.8,309.8,280.7z"/>
		<path class="st3" d="M210.7,261.1c1.3-3.1,2.5-6.3,3.9-9.5c0-3.5,0-6.9,0.1-10.3c-2.9,2.9-5.7,5.8-8.3,8.7
			C207.7,253.6,209.1,257.3,210.7,261.1z"/>
		<path class="st3" d="M313.7,260.9c-1.3,3.1-2.5,6.3-3.9,9.5c0,3.5,0,6.9-0.1,10.3c2.9-2.9,5.7-5.8,8.3-8.7
			C316.7,268.4,315.3,264.7,313.7,260.9z"/>
		<path class="st3" d="M309.8,280.7c-2.3,2.4-4.7,4.8-7.2,7.2c-1.3,3.2-2.6,6.3-3.9,9.4c3.7-1.6,7.3-3.2,10.9-4.8
			C309.7,288.7,309.8,284.8,309.8,280.7z"/>
		<path class="st3" d="M214.6,241.3c2.3-2.4,4.7-4.8,7.2-7.2c1.3-3.2,2.6-6.3,3.9-9.4c-3.7,1.6-7.3,3.2-10.9,4.8
			C214.7,233.3,214.6,237.2,214.6,241.3z"/>
		<path class="st3" d="M193.7,329.9c0.7,8.2,3.3,15.3,8.5,21.3c7.5,2.4,15.1,2.1,22.9-0.4c-3.4-6.5-5.7-14.3-7.2-23.1
			C209,329.6,201,330.5,193.7,329.9z"/>
		<path class="st3" d="M330.7,192.1c-0.7-8.2-3.3-15.3-8.5-21.3c-7.5-2.4-15.1-2.1-22.9,0.4c3.4,6.5,5.7,14.3,7.2,23.1
			C315.4,192.4,323.4,191.5,330.7,192.1z"/>
		<path class="st3" d="M277.7,182.6c7.4-5.2,14.6-9.2,21.7-11.4c-3.8-7.3-9-13-16.2-16.6c-7.9,0.6-14.9,3.9-21.3,9.2
			C267.6,168.6,272.8,175,277.7,182.6z"/>
		<path class="st3" d="M246.7,339.4c-7.4,5.2-14.6,9.2-21.7,11.4c3.8,7.3,9,13,16.2,16.6c7.9-0.6,14.9-3.9,21.3-9.2
			C256.8,353.4,251.6,347,246.7,339.4z"/>
		<path d="M237.1,322.1c-6.7,2.3-13.2,4.2-19.3,5.6c1.6,8.8,3.8,16.6,7.2,23.1c7.1-2.2,14.3-6.2,21.7-11.4
			C243.4,334.1,240.2,328.3,237.1,322.1z"/>
		<path d="M287.3,199.9c6.7-2.3,13.2-4.2,19.3-5.6c-1.6-8.8-3.8-16.6-7.2-23.1c-7.1,2.2-14.3,6.2-21.7,11.4
			C281,187.9,284.2,193.7,287.3,199.9z"/>
		<path d="M306.6,194.4c1.1,6.2,1.8,12.9,2.3,19.9c7,0.5,13.6,1.2,19.7,2.2c2-8.9,2.8-17,2.2-24.4
			C323.4,191.5,315.4,192.4,306.6,194.4z"/>
		<path d="M217.8,327.6c-1.1-6.2-1.8-12.9-2.3-19.9c4.9,0.3,9.9,0.5,15.1,0.7c-1.6-3.5-3.2-7.2-4.8-10.9c-3.8-1.6-7.5-3.2-11-4.8
			c-0.1-3.9-0.2-7.9-0.2-12c-2.8-2.9-5.6-5.7-8.2-8.5c-1.8,4.9-3.6,9.6-5.1,14.2c-6.4-3.1-12.3-6.4-17.6-9.7
			c-5.2,7.3-9.1,14.5-11.3,21.5c6.6,3.4,14.5,5.7,23.4,7.3c-2,8.9-2.8,17-2.2,24.4C201,330.5,209,329.6,217.8,327.6z M195.7,305.2
			c1.5-6,3.4-12.2,5.8-18.7c2.4,1.2,5,2.4,7.5,3.6c1.9,0.9,3.9,1.9,5.9,2.8c0,1.3,0.1,2.6,0.1,3.9c0.1,3.8,0.2,7.5,0.3,11.1
			C208.3,307.3,201.7,306.4,195.7,305.2z"/>
		<path class="st3" d="M323.1,235.6c2.2-6.6,4.1-13,5.4-19c-6.1-1.1-12.7-1.8-19.7-2.2c0.3,4.8,0.5,9.8,0.7,15
			C314.3,231.4,318.8,233.5,323.1,235.6z"/>
		<path class="st3" d="M214.9,296.8c0-1.3-0.1-2.6-0.1-3.9c-2-0.9-3.9-1.9-5.9-2.8c-2.6-1.2-5.1-2.4-7.5-3.6
			c-2.3,6.5-4.3,12.8-5.8,18.7c6.1,1.2,12.6,2,19.6,2.7C215.1,304.3,215,300.6,214.9,296.8z"/>
		<path class="st3" d="M308.9,214.3c-0.5-7.1-1.2-13.8-2.3-19.9c-6.1,1.4-12.6,3.3-19.3,5.6c2.2,4.4,4.3,8.9,6.5,13.7
			C299,213.8,304,214,308.9,214.3z"/>
		<path class="st3" d="M215.5,307.7c0.5,7.1,1.2,13.8,2.3,19.9c6.1-1.4,12.6-3.3,19.3-5.6c-2.2-4.4-4.3-8.9-6.5-13.7
			C225.4,308.2,220.4,308,215.5,307.7z"/>
		<path d="M298.5,224.5c3.8,1.6,7.5,3.2,11,4.8c-0.1-5.2-0.4-10.1-0.7-15c-4.9-0.3-9.9-0.5-15.1-0.7
			C295.4,217.1,297,220.8,298.5,224.5z"/>
		<path d="M309.8,241.3c2.8,2.9,5.6,5.7,8.2,8.5c1.8-4.9,3.6-9.6,5.1-14.2c-4.3-2.1-8.9-4.2-13.6-6.3
			C309.7,233.2,309.8,237.2,309.8,241.3z"/>
		<path class="st3" d="M210.7,261.1c-1.5,3.7-2.9,7.4-4.3,11.1c2.7,2.8,5.4,5.7,8.2,8.5c0-3.3,0-6.7-0.1-10.2
			C213.2,267.4,211.9,264.2,210.7,261.1z"/>
		<path class="st3" d="M309.8,241.3c0,3.3,0,6.7,0.1,10.2c1.3,3.2,2.6,6.3,3.9,9.4c1.5-3.7,2.9-7.4,4.3-11.1
			C315.4,247,312.6,244.2,309.8,241.3z"/>
		<path class="st3" d="M214.6,280.7c0,4.1,0.1,8.1,0.2,12c3.6,1.6,7.3,3.2,11,4.8c-1.3-3.1-2.7-6.3-4-9.5
			C219.4,285.6,217,283.1,214.6,280.7z"/>
		<path class="st3" d="M298.5,224.5c1.3,3.1,2.7,6.3,4,9.5c2.5,2.5,4.9,4.9,7.2,7.3c0-4.1-0.1-8.1-0.2-12
			C306,227.7,302.3,226.1,298.5,224.5z"/>
		<path d="M277.9,339.5c-5.1-3.6-10.4-7.8-15.7-12.5c-5.3,4.6-10.4,8.8-15.5,12.3c4.9,7.7,10,14.1,15.7,18.8
			C268,353.4,273.1,347.1,277.9,339.5z"/>
		<path d="M246.5,182.5c5.1,3.6,10.4,7.8,15.7,12.5c5.3-4.6,10.4-8.8,15.5-12.3c-4.9-7.7-10-14.1-15.7-18.8
			C256.4,168.6,251.3,174.9,246.5,182.5z"/>
		<path class="st3" d="M251.1,316.9c-4.8,1.9-9.5,3.6-14.1,5.1c3.1,6.3,6.3,12.1,9.6,17.3c5.1-3.6,10.2-7.7,15.5-12.3
			C258.6,323.9,254.9,320.5,251.1,316.9z"/>
		<path class="st3" d="M287.3,199.9c-3.1-6.3-6.3-12.1-9.6-17.3c-5.1,3.6-10.2,7.7-15.5,12.3c3.6,3.2,7.3,6.5,11.1,10.1
			C278.1,203.2,282.8,201.5,287.3,199.9z"/>
		<path class="st3" d="M262.2,327c5.3,4.7,10.6,8.9,15.7,12.5c3.4-5.3,6.6-11.2,9.7-17.6c-4.6-1.5-9.4-3.3-14.2-5.1
			C269.6,320.4,265.9,323.8,262.2,327z"/>
		<path class="st3" d="M262.2,195c-5.3-4.7-10.6-8.9-15.7-12.5c-3.4,5.3-6.6,11.2-9.7,17.6c4.6,1.5,9.4,3.3,14.2,5.1
			C254.8,201.6,258.5,198.2,262.2,195z"/>
		<path d="M262.3,312.5c-3.8,1.5-7.5,3-11.2,4.4c3.7,3.5,7.4,6.9,11.1,10.1c3.7-3.2,7.4-6.6,11.2-10.2
			C269.8,315.5,266.1,314,262.3,312.5z"/>
		<path d="M262.1,209.5c3.8-1.5,7.5-3,11.2-4.4c-3.7-3.5-7.4-6.9-11.1-10.1c-3.7,3.2-7.4,6.6-11.2,10.2
			C254.6,206.5,258.3,208,262.1,209.5z"/>
		<path d="M281.9,213.4c4,0,8,0.1,11.9,0.2c-2.1-4.8-4.3-9.3-6.5-13.7c-4.6,1.5-9.3,3.3-14.1,5.1C276.1,207.7,279,210.5,281.9,213.4
			z"/>
		<path d="M242.5,308.6c-4,0-8-0.1-11.9-0.2c2.1,4.8,4.3,9.3,6.5,13.7c4.6-1.5,9.3-3.3,14.1-5.1
			C248.3,314.3,245.4,311.5,242.5,308.6z"/>
		<path class="st3" d="M235.2,301.4c-3.2-1.3-6.3-2.6-9.4-3.9c1.6,3.7,3.2,7.3,4.8,10.9c3.9,0.1,7.8,0.2,11.9,0.2
			C240.1,306.3,237.7,303.9,235.2,301.4z"/>
		<path class="st3" d="M281.9,213.4c2.4,2.3,4.8,4.7,7.2,7.2c3.2,1.3,6.3,2.6,9.4,3.9c-1.6-3.7-3.2-7.3-4.8-10.9
			C289.9,213.5,286,213.4,281.9,213.4z"/>
		<path class="st3" d="M262.1,209.5c3.1,1.3,6.3,2.5,9.5,3.9c3.5,0,6.9,0,10.3,0.1c-2.9-2.9-5.8-5.7-8.7-8.3
			C269.6,206.5,265.9,207.9,262.1,209.5z"/>
		<path class="st3" d="M252.8,308.7c-3.5,0-6.9,0-10.3-0.1c2.9,2.9,5.8,5.7,8.7,8.3c3.7-1.4,7.4-2.9,11.2-4.4
			C259.2,311.3,256,310,252.8,308.7z"/>
		<path d="M242.5,308.6c3.4,0,6.8,0,10.3,0.1c3.2,1.3,6.4,2.6,9.5,3.9c3.1-1.3,6.2-2.5,9.4-3.9c3.4,0,6.8,0,10.2-0.1
			c2.4-2.4,4.9-4.8,7.3-7.2c3.2-1.3,6.4-2.7,9.5-4c1.3-3.1,2.6-6.2,3.9-9.4c2.4-2.4,4.8-4.8,7.2-7.2c0-3.4,0-6.8,0.1-10.3
			c1.3-3.2,2.6-6.4,3.9-9.5c-1.3-3.1-2.5-6.2-3.9-9.4c0-3.4,0-6.8-0.1-10.2c-2.4-2.4-4.8-4.9-7.2-7.3c-1.3-3.2-2.7-6.4-4-9.5
			c-3.1-1.3-6.2-2.6-9.4-3.9c-2.4-2.4-4.8-4.8-7.2-7.2c-3.4,0-6.8,0-10.3-0.1c-3.2-1.3-6.4-2.6-9.5-3.9c-3.1,1.3-6.2,2.5-9.4,3.9
			c-3.4,0-6.8,0-10.2,0.1c-2.4,2.4-4.9,4.8-7.3,7.2c-3.2,1.3-6.4,2.7-9.5,4c-1.3,3.1-2.6,6.2-3.9,9.4c-2.4,2.4-4.8,4.8-7.2,7.2
			c0,3.4,0,6.8-0.1,10.3c-1.3,3.2-2.6,6.4-3.9,9.5c1.3,3.1,2.5,6.2,3.9,9.4c0,3.4,0,6.8,0.1,10.2c2.4,2.4,4.8,4.9,7.2,7.3
			c1.3,3.2,2.7,6.4,4,9.5c3.1,1.3,6.2,2.6,9.4,3.9C237.7,303.9,240.1,306.3,242.5,308.6z M245.7,297.6c-3.2,1-6.4,1.2-9.5,0.2
			c-2.1-2.5-3.2-5.4-3.5-8.8c-3.4-0.3-6.4-1.4-8.9-3.5c-1-3.1-0.9-6.3,0.1-9.6c-3-1.6-5.3-3.7-6.8-6.6c0.3-3.2,1.6-6.1,3.8-8.7
			c-2.2-2.6-3.6-5.5-3.8-8.8c1.5-2.9,3.8-5.1,6.9-6.7c-1-3.2-1.2-6.4-0.2-9.5c2.5-2.1,5.4-3.2,8.8-3.5c0.3-3.4,1.4-6.4,3.5-8.9
			c3.1-1,6.3-0.9,9.6,0.1c1.6-3,3.7-5.3,6.6-6.8c3.2,0.3,6.1,1.6,8.7,3.8c2.6-2.2,5.5-3.6,8.8-3.8c2.9,1.5,5.1,3.8,6.7,6.9
			c3.2-1,6.4-1.2,9.5-0.2c2.1,2.5,3.2,5.4,3.5,8.8c3.4,0.3,6.4,1.4,8.9,3.5c1,3.1,0.9,6.3-0.1,9.6c3,1.6,5.3,3.7,6.8,6.6
			c-0.3,3.2-1.6,6.1-3.8,8.7c2.2,2.6,3.6,5.5,3.8,8.8c-1.5,2.9-3.8,5.1-6.9,6.7c1,3.2,1.2,6.4,0.2,9.5c-2.5,2.1-5.4,3.2-8.8,3.5
			c-0.3,3.4-1.4,6.4-3.5,8.9c-3.1,1-6.3,0.9-9.6-0.1c-1.6,3-3.7,5.3-6.6,6.8c-3.2-0.3-6.1-1.6-8.7-3.8c-2.6,2.2-5.5,3.6-8.8,3.8
			C249.4,303,247.3,300.6,245.7,297.6z"/>
		<path d="M242.5,213.4c2.9-2.8,5.7-5.6,8.5-8.2c-4.9-1.8-9.6-3.6-14.2-5.1c-2.1,4.3-4.2,8.9-6.3,13.6
			C234.4,213.5,238.4,213.4,242.5,213.4z"/>
		<path d="M281.9,308.6c-2.9,2.8-5.7,5.6-8.5,8.2c4.9,1.8,9.6,3.6,14.2,5.1c2.1-4.3,4.2-8.9,6.3-13.6
			C290,308.5,286,308.6,281.9,308.6z"/>
		<path class="st3" d="M242.5,213.4c3.3,0,6.7,0,10.2-0.1c3.2-1.3,6.3-2.6,9.4-3.9c-3.7-1.5-7.4-2.9-11.1-4.3
			C248.2,207.8,245.4,210.6,242.5,213.4z"/>
		<path class="st3" d="M281.9,308.6c-3.3,0-6.7,0-10.2,0.1c-3.2,1.3-6.3,2.6-9.4,3.9c3.7,1.5,7.4,2.9,11.1,4.3
			C276.2,314.2,279,311.4,281.9,308.6z"/>
		<path class="st3" d="M298.7,297.3c-3.1,1.3-6.3,2.7-9.5,4c-2.5,2.5-4.9,4.9-7.3,7.2c4.1,0,8.1-0.1,12-0.2
			C295.5,304.8,297.1,301.1,298.7,297.3z"/>
		<path class="st3" d="M225.7,224.7c3.1-1.3,6.3-2.7,9.5-4c2.5-2.5,4.9-4.9,7.3-7.2c-4.1,0-8.1,0.1-12,0.2
			C228.9,217.2,227.3,220.9,225.7,224.7z"/>
		<path class="st3" d="M233.6,278.9c-3.7-0.6-7-1.6-9.7-3c-1,3.3-1.2,6.5-0.1,9.6c2.5,2.1,5.5,3.2,8.9,3.5
			C232.4,285.9,232.8,282.5,233.6,278.9z"/>
		<path class="st3" d="M288.5,242.1c3.7,0.6,7,1.6,9.7,3c1-3.3,1.2-6.5,0.1-9.6c-2.5-2.1-5.5-3.2-8.9-3.5
			C289.7,235,289.4,238.4,288.5,242.1z"/>
		<path class="st3" d="M301.3,260.4c2.2-2.6,3.5-5.5,3.8-8.7c-1.5-2.9-3.8-5-6.8-6.6c-0.9,2.9-2.5,5.8-4.7,8.9
			C296.7,255.9,299.3,258,301.3,260.4z"/>
		<path class="st3" d="M220.9,260.6c-2.2,2.6-3.5,5.5-3.8,8.7c1.5,2.9,3.8,5,6.8,6.6c0.9-2.9,2.5-5.8,4.7-8.9
			C225.5,265,222.8,262.9,220.9,260.6z"/>
		<path d="M286.3,249.9c2.6,1.3,5.1,2.6,7.3,4c2.1-3,3.7-6,4.7-8.9c-2.7-1.4-6-2.4-9.7-3C288,244.6,287.2,247.2,286.3,249.9z"/>
		<path class="st3" d="M293.5,266.9c2.2,3.1,3.8,6.1,4.7,9c3-1.6,5.4-3.7,6.9-6.7c-0.3-3.3-1.6-6.2-3.8-8.8
			C299.3,262.7,296.7,264.8,293.5,266.9z"/>
		<path class="st3" d="M228.7,254c-2.2-3.1-3.8-6.1-4.7-9c-3,1.6-5.4,3.7-6.9,6.7c0.3,3.3,1.6,6.2,3.8,8.8
			C222.8,258.2,225.5,256.1,228.7,254z"/>
		<path class="st3" d="M232.6,232.1c-3.4,0.3-6.3,1.4-8.8,3.5c-1,3.1-0.8,6.2,0.2,9.5c2.7-1.4,5.9-2.3,9.6-3
			C232.7,238.5,232.3,235.1,232.6,232.1z"/>
		<path class="st3" d="M289.6,288.8c3.4-0.3,6.3-1.4,8.8-3.5c1-3.1,0.8-6.2-0.2-9.5c-2.7,1.4-5.9,2.3-9.6,3
			C289.5,282.5,289.8,285.8,289.6,288.8z"/>
		<path d="M235.8,250.1c-0.9-2.8-1.7-5.4-2.3-8c-3.7,0.6-6.9,1.6-9.6,3c0.9,2.9,2.6,5.9,4.7,9C230.8,252.7,233.2,251.4,235.8,250.1z
			"/>
		<path d="M286.4,270.9c0.9,2.8,1.7,5.4,2.3,8c3.7-0.6,6.9-1.6,9.6-3c-0.9-2.9-2.6-5.9-4.7-9C291.3,268.2,288.9,269.6,286.4,270.9z"
			/>
		<path d="M228.6,267c1.5-2.1,3.2-4.3,5.2-6.5c-1.9-2.2-3.6-4.3-5.1-6.4c-3.2,2-5.8,4.2-7.8,6.5C222.8,262.9,225.5,265,228.6,267z"
			/>
		<path d="M293.6,254c-1.5,2.1-3.2,4.3-5.2,6.5c1.9,2.2,3.6,4.3,5.1,6.4c3.2-2,5.8-4.2,7.8-6.5C299.3,258,296.7,255.9,293.6,254z"/>
		<path class="st3" d="M288.4,260.5c1.9-2.2,3.7-4.4,5.2-6.5c-2.2-1.4-4.6-2.7-7.3-4c-0.6,1.9-1.3,3.9-2.1,5.9
			C285.7,257.4,287.1,258.9,288.4,260.5z"/>
		<path class="st3" d="M228.6,267c2.2,1.4,4.6,2.7,7.3,4c0.6-1.9,1.3-3.9,2.1-5.9c-1.5-1.6-2.9-3.1-4.2-4.6
			C231.8,262.7,230.1,264.8,228.6,267z"/>
		<path class="st3" d="M286.4,270.9c2.6-1.3,5-2.6,7.2-4c-1.5-2.1-3.2-4.2-5.1-6.4c-1.3,1.5-2.7,3-4.2,4.6
			C285,267,285.7,269,286.4,270.9z"/>
		<path class="st3" d="M235.8,250.1c-2.6,1.3-5,2.6-7.2,4c1.5,2.1,3.2,4.2,5.1,6.4c1.3-1.5,2.7-3,4.2-4.6
			C237.2,253.9,236.5,251.9,235.8,250.1z"/>
		<path d="M282.4,260.4c0.6,1.6,1.2,3.1,1.8,4.6c1.5-1.5,2.9-3.1,4.2-4.6c-1.3-1.5-2.7-3.1-4.2-4.6
			C283.6,257.3,283,258.9,282.4,260.4z"/>
		<path d="M237.9,255.9c-1.5,1.5-2.9,3.1-4.2,4.6c1.3,1.5,2.7,3.1,4.2,4.6c0.6-1.5,1.2-3,1.8-4.6
			C239.1,258.9,238.5,257.4,237.9,255.9z"/>
		<path class="st3" d="M242.7,233c0.6-3.7,1.6-7,3-9.7c-3.3-1-6.5-1.2-9.6-0.1c-2.1,2.5-3.2,5.5-3.5,8.9
			C235.6,231.8,239,232.2,242.7,233z"/>
		<path class="st3" d="M279.5,287.9c-0.6,3.7-1.6,7-3,9.7c3.3,1,6.5,1.2,9.6,0.1c2.1-2.5,3.2-5.5,3.5-8.9
			C286.5,289.1,283.1,288.7,279.5,287.9z"/>
		<path class="st3" d="M261.2,300.7c2.6,2.2,5.5,3.5,8.7,3.8c2.9-1.5,5-3.8,6.6-6.8c-2.9-0.9-5.8-2.5-8.9-4.7
			C265.6,296.1,263.5,298.7,261.2,300.7z"/>
		<path class="st3" d="M261,220.3c-2.6-2.2-5.5-3.5-8.7-3.8c-2.9,1.5-5,3.8-6.6,6.8c2.9,0.9,5.8,2.5,8.9,4.7
			C256.6,224.8,258.7,222.2,261,220.3z"/>
		<path d="M250.6,235.2c1.3-2.6,2.6-5.1,4-7.3c-3-2.1-6-3.7-8.9-4.7c-1.4,2.7-2.4,6-3,9.7C245.2,233.6,247.8,234.3,250.6,235.2z"/>
		<path d="M271.6,285.7c-1.3,2.6-2.6,5.1-4,7.3c3,2.1,6,3.7,8.9,4.7c1.4-2.7,2.4-6,3-9.7C277,287.4,274.3,286.6,271.6,285.7z"/>
		<path d="M288.7,278.8c-2.6,0.4-5.3,0.7-8.2,0.9c-0.2,2.9-0.5,5.6-0.9,8.1c3.7,0.8,7.1,1.2,10.1,0.9
			C289.8,285.8,289.5,282.5,288.7,278.8z"/>
		<path d="M233.5,242.1c2.6-0.4,5.3-0.7,8.2-0.9c0.2-2.9,0.5-5.6,0.9-8.1c-3.7-0.8-7.1-1.2-10.1-0.9
			C232.3,235.1,232.7,238.5,233.5,242.1z"/>
		<path class="st3" d="M241.8,241.1c-2.9,0.2-5.7,0.5-8.2,0.9c0.6,2.5,1.4,5.2,2.3,8c1.8-0.9,3.7-1.8,5.7-2.7
			C241.5,245.2,241.6,243.1,241.8,241.1z"/>
		<path class="st3" d="M280.4,279.8c2.9-0.2,5.7-0.5,8.2-0.9c-0.6-2.5-1.4-5.2-2.3-8c-1.8,0.9-3.7,1.8-5.7,2.7
			C280.6,275.7,280.5,277.8,280.4,279.8z"/>
		<path class="st3" d="M271.6,285.7c2.7,0.9,5.4,1.7,7.9,2.2c0.4-2.5,0.7-5.2,0.9-8.1c-2,0.1-4.1,0.2-6.2,0.3
			C273.4,282,272.5,283.9,271.6,285.7z"/>
		<path class="st3" d="M250.6,235.2c-2.7-0.9-5.4-1.7-7.9-2.2c-0.4,2.5-0.7,5.2-0.9,8.1c2-0.1,4.1-0.2,6.2-0.3
			C248.8,238.9,249.7,237,250.6,235.2z"/>
		<path d="M276.2,275.5c-0.7,1.6-1.3,3.1-2,4.6c2.1-0.1,4.2-0.1,6.2-0.3c0.1-2,0.2-4.1,0.3-6.3C279.2,274.2,277.7,274.8,276.2,275.5
			z"/>
		<path d="M246,245.4c0.7-1.6,1.3-3.1,2-4.6c-2.1,0.1-4.2,0.1-6.2,0.3c-0.1,2-0.2,4.1-0.3,6.3C242.9,246.7,244.4,246.1,246,245.4z"
			/>
		<path d="M241.4,252.3c0-1.7,0-3.3,0.1-4.9c-2,0.9-3.9,1.8-5.7,2.7c0.6,1.9,1.4,3.8,2.1,5.8C239,254.7,240.2,253.5,241.4,252.3z"/>
		<path d="M280.8,268.6c0,1.7,0,3.3-0.1,4.9c2-0.9,3.9-1.8,5.7-2.7c-0.6-1.9-1.4-3.8-2.1-5.8C283.1,266.2,282,267.4,280.8,268.6z"/>
		<path class="st3" d="M239.8,260.5c0.5-1.3,1.1-2.6,1.6-3.9c0-1.4,0-2.9,0-4.3c-1.2,1.2-2.3,2.4-3.5,3.6
			C238.5,257.4,239.1,258.9,239.8,260.5z"/>
		<path class="st3" d="M282.4,260.4c-0.5,1.3-1.1,2.6-1.6,3.9c0,1.4,0,2.9,0,4.3c1.2-1.2,2.3-2.4,3.5-3.6
			C283.6,263.5,283,262,282.4,260.4z"/>
		<path class="st3" d="M280.8,268.6c-1,1-2,2-3,3c-0.5,1.3-1.1,2.6-1.6,3.9c1.5-0.7,3-1.3,4.5-2
			C280.7,271.9,280.8,270.3,280.8,268.6z"/>
		<path class="st3" d="M241.4,252.3c1-1,2-2,3-3c0.5-1.3,1.1-2.6,1.6-3.9c-1.5,0.7-3,1.3-4.5,2C241.4,249,241.4,250.6,241.4,252.3z"
			/>
		<path class="st3" d="M232.7,289c0.3,3.4,1.4,6.3,3.5,8.8c3.1,1,6.2,0.8,9.5-0.2c-1.4-2.7-2.3-5.9-3-9.6
			C239.1,288.8,235.7,289.2,232.7,289z"/>
		<path class="st3" d="M289.4,232c-0.3-3.4-1.4-6.3-3.5-8.8c-3.1-1-6.2-0.8-9.5,0.2c1.4,2.7,2.3,5.9,3,9.6
			C283.1,232.1,286.4,231.7,289.4,232z"/>
		<path class="st3" d="M267.5,228c3.1-2.2,6.1-3.8,9-4.7c-1.6-3-3.7-5.4-6.7-6.9c-3.3,0.3-6.2,1.6-8.8,3.8
			C263.3,222.2,265.5,224.9,267.5,228z"/>
		<path class="st3" d="M254.7,292.9c-3.1,2.2-6.1,3.8-9,4.7c1.6,3,3.7,5.4,6.7,6.9c3.3-0.3,6.2-1.6,8.8-3.8
			C258.8,298.7,256.7,296.1,254.7,292.9z"/>
		<path d="M250.7,285.7c-2.8,0.9-5.4,1.7-8,2.3c0.6,3.7,1.6,6.9,3,9.6c2.9-0.9,5.9-2.6,9-4.7C253.3,290.7,252,288.3,250.7,285.7z"/>
		<path d="M271.5,235.2c2.8-0.9,5.4-1.7,8-2.3c-0.6-3.7-1.6-6.9-3-9.6c-2.9,0.9-5.9,2.6-9,4.7C268.9,230.2,270.2,232.6,271.5,235.2z
			"/>
		<path d="M279.5,232.9c0.4,2.6,0.7,5.3,0.9,8.2c2.9,0.2,5.6,0.5,8.1,0.9c0.8-3.7,1.2-7.1,0.9-10.1
			C286.4,231.7,283.1,232.1,279.5,232.9z"/>
		<path d="M242.7,288c-0.4-2.6-0.7-5.3-0.9-8.2c2,0.1,4.1,0.2,6.3,0.3c-0.7-1.5-1.3-3-2-4.5c-1.6-0.7-3.1-1.3-4.6-2
			c0-1.6-0.1-3.3-0.1-5c-1.2-1.2-2.3-2.4-3.4-3.5c-0.8,2-1.5,4-2.1,5.9c-2.6-1.3-5.1-2.6-7.3-4c-2.1,3-3.7,6-4.7,8.9
			c2.7,1.4,6,2.4,9.7,3c-0.8,3.7-1.2,7.1-0.9,10.1C235.7,289.2,239.1,288.8,242.7,288z M233.6,278.8c0.6-2.5,1.4-5.1,2.4-7.8
			c1,0.5,2,1,3.1,1.5c0.8,0.4,1.6,0.8,2.4,1.2c0,0.5,0,1.1,0.1,1.6c0,1.6,0.1,3.1,0.1,4.6C238.8,279.6,236.1,279.3,233.6,278.8z"/>
		<path class="st3" d="M286.3,249.9c0.9-2.7,1.7-5.4,2.2-7.9c-2.5-0.4-5.2-0.7-8.1-0.9c0.1,2,0.2,4.1,0.3,6.2
			C282.6,248.2,284.5,249.1,286.3,249.9z"/>
		<path class="st3" d="M241.5,275.3c0-0.5,0-1.1-0.1-1.6c-0.8-0.4-1.6-0.8-2.4-1.2c-1.1-0.5-2.1-1-3.1-1.5c-1,2.7-1.8,5.3-2.4,7.8
			c2.5,0.5,5.2,0.8,8.1,1.1C241.6,278.4,241.6,276.8,241.5,275.3z"/>
		<path class="st3" d="M280.4,241.1c-0.2-2.9-0.5-5.7-0.9-8.2c-2.5,0.6-5.2,1.4-8,2.3c0.9,1.8,1.8,3.7,2.7,5.7
			C276.3,240.9,278.4,241,280.4,241.1z"/>
		<path class="st3" d="M241.8,279.8c0.2,2.9,0.5,5.7,0.9,8.2c2.5-0.6,5.2-1.4,8-2.3c-0.9-1.8-1.8-3.7-2.7-5.7
			C245.9,280,243.8,279.9,241.8,279.8z"/>
		<path d="M276.1,245.3c1.6,0.7,3.1,1.3,4.6,2c-0.1-2.1-0.1-4.2-0.3-6.2c-2-0.1-4.1-0.2-6.3-0.3
			C274.8,242.3,275.5,243.8,276.1,245.3z"/>
		<path d="M280.8,252.3c1.2,1.2,2.3,2.4,3.4,3.5c0.8-2,1.5-4,2.1-5.9c-1.8-0.9-3.7-1.8-5.6-2.6C280.7,248.9,280.8,250.6,280.8,252.3
			z"/>
		<path class="st3" d="M239.8,260.5c-0.6,1.6-1.2,3.1-1.8,4.6c1.1,1.2,2.2,2.3,3.4,3.5c0-1.4,0-2.8,0-4.2
			C240.8,263.1,240.3,261.8,239.8,260.5z"/>
		<path class="st3" d="M280.8,252.3c0,1.4,0,2.8,0,4.2c0.5,1.3,1.1,2.6,1.6,3.9c0.6-1.6,1.2-3.1,1.8-4.6
			C283.1,254.7,281.9,253.5,280.8,252.3z"/>
		<path class="st3" d="M241.4,268.6c0,1.7,0,3.4,0.1,5c1.5,0.7,3,1.3,4.6,2c-0.6-1.3-1.1-2.6-1.7-3.9
			C243.4,270.6,242.4,269.6,241.4,268.6z"/>
		<path class="st3" d="M276.1,245.3c0.6,1.3,1.1,2.6,1.7,3.9c1,1,2,2,3,3c0-1.7,0-3.4-0.1-5C279.2,246.7,277.7,246,276.1,245.3z"/>
		<path d="M267.6,292.9c-2.1-1.5-4.3-3.2-6.5-5.2c-2.2,1.9-4.3,3.6-6.4,5.1c2,3.2,4.2,5.8,6.5,7.8
			C263.5,298.7,265.6,296.1,267.6,292.9z"/>
		<path d="M254.6,228c2.1,1.5,4.3,3.2,6.5,5.2c2.2-1.9,4.3-3.6,6.4-5.1c-2-3.2-4.2-5.8-6.5-7.8C258.7,222.2,256.6,224.8,254.6,228z"
			/>
		<path class="st3" d="M256.5,283.6c-2,0.8-3.9,1.5-5.8,2.1c1.3,2.6,2.6,5,4,7.2c2.1-1.5,4.2-3.2,6.4-5.1
			C259.6,286.5,258.1,285.1,256.5,283.6z"/>
		<path class="st3" d="M271.5,235.2c-1.3-2.6-2.6-5-4-7.2c-2.1,1.5-4.2,3.2-6.4,5.1c1.5,1.3,3,2.7,4.6,4.2
			C267.6,236.5,269.6,235.8,271.5,235.2z"/>
		<path class="st3" d="M261.1,287.8c2.2,1.9,4.4,3.7,6.5,5.2c1.4-2.2,2.7-4.6,4-7.3c-1.9-0.6-3.9-1.3-5.9-2.1
			C264.1,285,262.6,286.5,261.1,287.8z"/>
		<path class="st3" d="M261.1,233.1c-2.2-1.9-4.4-3.7-6.5-5.2c-1.4,2.2-2.7,4.6-4,7.3c1.9,0.6,3.9,1.3,5.9,2.1
			C258,235.9,259.6,234.5,261.1,233.1z"/>
		<path d="M261.1,281.8c-1.6,0.6-3.1,1.2-4.6,1.8c1.5,1.5,3.1,2.9,4.6,4.2c1.5-1.3,3.1-2.7,4.6-4.2
			C264.2,283,262.7,282.4,261.1,281.8z"/>
		<path d="M261,239.1c1.6-0.6,3.1-1.2,4.6-1.8c-1.5-1.5-3.1-2.9-4.6-4.2c-1.5,1.3-3.1,2.7-4.6,4.2C258,237.9,259.5,238.5,261,239.1z
			"/>
		<path d="M269.2,240.8c1.7,0,3.3,0,4.9,0.1c-0.9-2-1.8-3.9-2.7-5.7c-1.9,0.6-3.8,1.4-5.8,2.1C266.8,238.4,268,239.6,269.2,240.8z"
			/>
		<path d="M252.9,280.2c-1.7,0-3.3,0-4.9-0.1c0.9,2,1.8,3.9,2.7,5.7c1.9-0.6,3.8-1.4,5.8-2.1C255.3,282.5,254.1,281.3,252.9,280.2z"
			/>
		<path class="st3" d="M249.9,277.2c-1.3-0.5-2.6-1.1-3.9-1.6c0.7,1.5,1.3,3,2,4.5c1.6,0,3.2,0.1,4.9,0.1
			C251.9,279.2,250.9,278.2,249.9,277.2z"/>
		<path class="st3" d="M269.2,240.8c1,1,2,2,3,3c1.3,0.5,2.6,1.1,3.9,1.6c-0.7-1.5-1.3-3-2-4.5C272.5,240.8,270.9,240.8,269.2,240.8
			z"/>
		<path class="st3" d="M261,239.1c1.3,0.5,2.6,1.1,3.9,1.6c1.4,0,2.9,0,4.3,0c-1.2-1.2-2.4-2.3-3.6-3.5
			C264.1,237.9,262.6,238.5,261,239.1z"/>
		<path class="st3" d="M257.2,280.2c-1.4,0-2.9,0-4.3,0c1.2,1.2,2.4,2.3,3.6,3.5c1.5-0.6,3.1-1.2,4.6-1.8
			C259.8,281.3,258.5,280.7,257.2,280.2z"/>
		<path d="M252.9,280.2c1.4,0,2.8,0,4.3,0c1.3,0.5,2.6,1.1,3.9,1.6c1.3-0.5,2.6-1.1,3.9-1.6c1.4,0,2.8,0,4.2,0c1-1,2-2,3-3
			c1.3-0.6,2.6-1.1,3.9-1.7c0.5-1.3,1.1-2.6,1.6-3.9c1-1,2-2,3-3c0-1.4,0-2.8,0-4.3c0.5-1.3,1.1-2.6,1.6-3.9
			c-0.5-1.3-1.1-2.6-1.6-3.9c0-1.4,0-2.8,0-4.2c-1-1-2-2-3-3c-0.6-1.3-1.1-2.6-1.7-3.9c-1.3-0.5-2.6-1.1-3.9-1.6c-1-1-2-2-3-3
			c-1.4,0-2.8,0-4.3,0c-1.3-0.5-2.6-1.1-3.9-1.6c-1.3,0.5-2.6,1.1-3.9,1.6c-1.4,0-2.8,0-4.2,0c-1,1-2,2-3,3
			c-1.3,0.6-2.6,1.1-3.9,1.7c-0.5,1.3-1.1,2.6-1.6,3.9c-1,1-2,2-3,3c0,1.4,0,2.8,0,4.3c-0.5,1.3-1.1,2.6-1.6,3.9
			c0.5,1.3,1.1,2.6,1.6,3.9c0,1.4,0,2.8,0,4.2c1,1,2,2,3,3c0.6,1.3,1.1,2.6,1.7,3.9c1.3,0.5,2.6,1.1,3.9,1.6
			C250.9,278.2,251.9,279.2,252.9,280.2z M255,275.2c-1.3,0.4-2.5,0.5-3.7,0.1c-0.8-1-1.2-2.1-1.4-3.4c-1.3-0.1-2.5-0.5-3.5-1.4
			c-0.4-1.2-0.3-2.5,0.1-3.7c-1.2-0.6-2.1-1.4-2.7-2.6c0.1-1.3,0.6-2.4,1.5-3.4c-0.9-1-1.4-2.1-1.5-3.4c0.6-1.1,1.5-2,2.7-2.6
			c-0.4-1.3-0.5-2.5-0.1-3.7c1-0.8,2.1-1.2,3.4-1.4c0.1-1.3,0.5-2.5,1.4-3.5c1.2-0.4,2.5-0.3,3.7,0.1c0.6-1.2,1.4-2.1,2.6-2.7
			c1.3,0.1,2.4,0.6,3.4,1.5c1-0.9,2.1-1.4,3.4-1.5c1.1,0.6,2,1.5,2.6,2.7c1.3-0.4,2.5-0.5,3.7-0.1c0.8,1,1.2,2.1,1.4,3.4
			c1.3,0.1,2.5,0.5,3.5,1.4c0.4,1.2,0.3,2.5-0.1,3.7c1.2,0.6,2.1,1.4,2.7,2.6c-0.1,1.3-0.6,2.4-1.5,3.4c0.9,1,1.4,2.1,1.5,3.4
			c-0.6,1.1-1.5,2-2.7,2.6c0.4,1.3,0.5,2.5,0.1,3.7c-1,0.8-2.1,1.2-3.4,1.4c-0.1,1.3-0.5,2.5-1.4,3.5c-1.2,0.4-2.5,0.3-3.7-0.1
			c-0.6,1.2-1.4,2.1-2.6,2.7c-1.3-0.1-2.4-0.6-3.4-1.5c-1,0.9-2.1,1.4-3.4,1.5C256.5,277.3,255.7,276.4,255,275.2z"/>
		<path d="M252.9,240.8c1.2-1.2,2.4-2.3,3.5-3.4c-2-0.8-4-1.5-5.9-2.1c-0.9,1.8-1.8,3.7-2.6,5.6
			C249.6,240.8,251.2,240.8,252.9,240.8z"/>
		<path d="M269.2,280.2c-1.2,1.2-2.4,2.3-3.5,3.4c2,0.8,4,1.5,5.9,2.1c0.9-1.8,1.8-3.7,2.6-5.6C272.6,280.1,270.9,280.1,269.2,280.2
			z"/>
		<path class="st3" d="M252.9,240.8c1.4,0,2.8,0,4.2,0c1.3-0.5,2.6-1.1,3.9-1.6c-1.6-0.6-3.1-1.2-4.6-1.8
			C255.3,238.5,254.1,239.6,252.9,240.8z"/>
		<path class="st3" d="M269.2,280.2c-1.4,0-2.8,0-4.2,0c-1.3,0.5-2.6,1.1-3.9,1.6c1.6,0.6,3.1,1.2,4.6,1.8
			C266.9,282.5,268,281.3,269.2,280.2z"/>
		<path class="st3" d="M276.2,275.5c-1.3,0.6-2.6,1.1-3.9,1.7c-1,1-2,2-3,3c1.7,0,3.4,0,5-0.1C274.9,278.6,275.5,277.1,276.2,275.5z
			"/>
		<path class="st3" d="M246,245.4c1.3-0.6,2.6-1.1,3.9-1.7c1-1,2-2,3-3c-1.7,0-3.4,0-5,0.1C247.3,242.3,246.6,243.9,246,245.4z"/>
		<path class="st3" d="M250.3,267.9c-1.4-0.2-2.7-0.6-3.8-1.2c-0.4,1.3-0.5,2.5-0.1,3.7c1,0.8,2.1,1.3,3.5,1.4
			C249.9,270.7,250,269.4,250.3,267.9z"/>
		<path class="st3" d="M271.7,253.6c1.4,0.2,2.7,0.6,3.8,1.2c0.4-1.3,0.5-2.5,0.1-3.7c-1-0.8-2.1-1.3-3.5-1.4
			C272.2,250.9,272,252.2,271.7,253.6z"/>
		<path class="st3" d="M276.7,260.7c0.8-1,1.4-2.1,1.5-3.4c-0.6-1.1-1.5-2-2.7-2.6c-0.4,1.1-1,2.3-1.8,3.5
			C274.9,259,275.9,259.8,276.7,260.7z"/>
		<path class="st3" d="M245.4,260.8c-0.8,1-1.4,2.1-1.5,3.4c0.6,1.1,1.5,2,2.7,2.6c0.4-1.1,1-2.3,1.8-3.5
			C247.2,262.5,246.1,261.7,245.4,260.8z"/>
		<path d="M270.9,256.7c1,0.5,2,1,2.8,1.6c0.8-1.2,1.5-2.3,1.8-3.5c-1.1-0.6-2.3-0.9-3.8-1.2C271.5,254.6,271.2,255.6,270.9,256.7z"
			/>
		<path class="st3" d="M273.7,263.3c0.8,1.2,1.5,2.4,1.8,3.5c1.2-0.6,2.1-1.5,2.7-2.6c-0.1-1.3-0.6-2.4-1.5-3.4
			C275.9,261.6,274.9,262.5,273.7,263.3z"/>
		<path class="st3" d="M248.4,258.3c-0.8-1.2-1.5-2.4-1.8-3.5c-1.2,0.6-2.1,1.5-2.7,2.6c0.1,1.3,0.6,2.4,1.5,3.4
			C246.1,259.9,247.2,259.1,248.4,258.3z"/>
		<path class="st3" d="M249.9,249.7c-1.3,0.1-2.5,0.5-3.4,1.4c-0.4,1.2-0.3,2.4,0.1,3.7c1-0.5,2.3-0.9,3.7-1.2
			C250,252.2,249.8,250.9,249.9,249.7z"/>
		<path class="st3" d="M272.1,271.8c1.3-0.1,2.5-0.5,3.4-1.4c0.4-1.2,0.3-2.4-0.1-3.7c-1,0.5-2.3,0.9-3.7,1.2
			C272.1,269.3,272.2,270.6,272.1,271.8z"/>
		<path d="M251.2,256.7c-0.4-1.1-0.7-2.1-0.9-3.1c-1.4,0.2-2.7,0.6-3.7,1.2c0.4,1.1,1,2.3,1.8,3.5
			C249.2,257.7,250.2,257.2,251.2,256.7z"/>
		<path d="M270.9,264.8c0.4,1.1,0.7,2.1,0.9,3.1c1.4-0.2,2.7-0.6,3.7-1.2c-0.4-1.1-1-2.3-1.8-3.5
			C272.8,263.8,271.9,264.3,270.9,264.8z"/>
		<path d="M248.4,263.3c0.6-0.8,1.3-1.7,2-2.5c-0.7-0.8-1.4-1.7-2-2.5c-1.2,0.8-2.3,1.6-3,2.5C246.1,261.7,247.2,262.5,248.4,263.3z
			"/>
		<path d="M273.7,258.2c-0.6,0.8-1.3,1.7-2,2.5c0.7,0.8,1.4,1.7,2,2.5c1.2-0.8,2.3-1.6,3-2.5C275.9,259.8,274.9,259,273.7,258.2z"/>
		<path class="st3" d="M271.7,260.8c0.8-0.9,1.4-1.7,2-2.5c-0.9-0.5-1.8-1.1-2.8-1.6c-0.2,0.7-0.5,1.5-0.8,2.3
			C270.6,259.6,271.2,260.2,271.7,260.8z"/>
		<path class="st3" d="M248.4,263.3c0.9,0.5,1.8,1.1,2.8,1.6c0.2-0.7,0.5-1.5,0.8-2.3c-0.6-0.6-1.1-1.2-1.6-1.8
			C249.6,261.6,249,262.5,248.4,263.3z"/>
		<path class="st3" d="M270.9,264.8c1-0.5,1.9-1,2.8-1.6c-0.6-0.8-1.2-1.6-2-2.5c-0.5,0.6-1.1,1.2-1.6,1.8
			C270.3,263.3,270.6,264.1,270.9,264.8z"/>
		<path class="st3" d="M251.2,256.7c-1,0.5-1.9,1-2.8,1.6c0.6,0.8,1.2,1.6,2,2.5c0.5-0.6,1.1-1.2,1.6-1.8
			C251.7,258.2,251.4,257.5,251.2,256.7z"/>
		<path d="M269.3,260.7c0.2,0.6,0.5,1.2,0.7,1.8c0.6-0.6,1.1-1.2,1.6-1.8c-0.5-0.6-1.1-1.2-1.6-1.8
			C269.8,259.6,269.6,260.1,269.3,260.7z"/>
		<path d="M252,259c-0.6,0.6-1.1,1.2-1.6,1.8c0.5,0.6,1.1,1.2,1.6,1.8c0.2-0.6,0.5-1.2,0.7-1.8C252.5,260.2,252.2,259.6,252,259z"/>
		<path class="st3" d="M253.9,250.1c0.2-1.4,0.6-2.7,1.2-3.8c-1.3-0.4-2.5-0.5-3.7-0.1c-0.8,1-1.3,2.1-1.4,3.5
			C251.1,249.6,252.4,249.8,253.9,250.1z"/>
		<path class="st3" d="M268.2,271.5c-0.2,1.4-0.6,2.7-1.2,3.8c1.3,0.4,2.5,0.5,3.7,0.1c0.8-1,1.3-2.1,1.4-3.5
			C270.9,271.9,269.6,271.8,268.2,271.5z"/>
		<path class="st3" d="M261.1,276.4c1,0.8,2.1,1.4,3.4,1.5c1.1-0.6,2-1.5,2.6-2.7c-1.1-0.4-2.3-1-3.5-1.8
			C262.8,274.6,262,275.7,261.1,276.4z"/>
		<path class="st3" d="M261,245.1c-1-0.8-2.1-1.4-3.4-1.5c-1.1,0.6-2,1.5-2.6,2.7c1.1,0.4,2.3,1,3.5,1.8
			C259.3,246.9,260.1,245.9,261,245.1z"/>
		<path d="M256.9,250.9c0.5-1,1-2,1.6-2.8c-1.2-0.8-2.3-1.5-3.5-1.8c-0.6,1.1-0.9,2.3-1.2,3.8C254.8,250.3,255.9,250.6,256.9,250.9z
			"/>
		<path d="M265.1,270.6c-0.5,1-1,2-1.6,2.8c1.2,0.8,2.3,1.5,3.5,1.8c0.6-1.1,0.9-2.3,1.2-3.8C267.2,271.2,266.2,270.9,265.1,270.6z"
			/>
		<path d="M271.8,267.9c-1,0.2-2.1,0.3-3.2,0.4c-0.1,1.1-0.2,2.2-0.4,3.2c1.4,0.3,2.7,0.5,3.9,0.4
			C272.2,270.6,272.1,269.3,271.8,267.9z"/>
		<path d="M250.3,253.6c1-0.2,2.1-0.3,3.2-0.4c0.1-1.1,0.2-2.2,0.4-3.2c-1.4-0.3-2.7-0.5-3.9-0.4C249.8,250.9,250,252.2,250.3,253.6
			z"/>
		<path class="st3" d="M253.5,253.2c-1.1,0.1-2.2,0.2-3.2,0.4c0.2,1,0.5,2,0.9,3.1c0.7-0.4,1.4-0.7,2.2-1
			C253.4,254.8,253.5,254,253.5,253.2z"/>
		<path class="st3" d="M268.6,268.3c1.1-0.1,2.2-0.2,3.2-0.4c-0.2-1-0.5-2-0.9-3.1c-0.7,0.4-1.4,0.7-2.2,1
			C268.6,266.7,268.6,267.5,268.6,268.3z"/>
		<path class="st3" d="M265.1,270.6c1.1,0.4,2.1,0.7,3.1,0.9c0.2-1,0.3-2,0.4-3.2c-0.8,0.1-1.6,0.1-2.4,0.1
			C265.8,269.2,265.5,269.9,265.1,270.6z"/>
		<path class="st3" d="M256.9,250.9c-1.1-0.4-2.1-0.7-3.1-0.9c-0.2,1-0.3,2-0.4,3.2c0.8-0.1,1.6-0.1,2.4-0.1
			C256.3,252.4,256.6,251.6,256.9,250.9z"/>
		<path d="M266.9,266.6c-0.3,0.6-0.5,1.2-0.8,1.8c0.8,0,1.6-0.1,2.4-0.1c0.1-0.8,0.1-1.6,0.1-2.4
			C268.1,266.1,267.5,266.4,266.9,266.6z"/>
		<path d="M255.1,254.9c0.3-0.6,0.5-1.2,0.8-1.8c-0.8,0-1.6,0.1-2.4,0.1c-0.1,0.8-0.1,1.6-0.1,2.4
			C254,255.4,254.6,255.2,255.1,254.9z"/>
		<path d="M253.4,257.6c0-0.7,0-1.3,0-1.9c-0.8,0.3-1.5,0.7-2.2,1c0.2,0.7,0.5,1.5,0.8,2.3C252.5,258.5,252.9,258.1,253.4,257.6z"/>
		<path d="M268.7,263.9c0,0.7,0,1.3,0,1.9c0.8-0.3,1.5-0.7,2.2-1c-0.2-0.7-0.5-1.5-0.8-2.3C269.6,263,269.2,263.5,268.7,263.9z"/>
		<path class="st3" d="M252.7,260.8c0.2-0.5,0.4-1,0.6-1.5c0-0.6,0-1.1,0-1.7c-0.5,0.5-0.9,0.9-1.3,1.4
			C252.2,259.6,252.5,260.2,252.7,260.8z"/>
		<path class="st3" d="M269.3,260.7c-0.2,0.5-0.4,1-0.6,1.5c0,0.6,0,1.1,0,1.7c0.5-0.5,0.9-0.9,1.3-1.4
			C269.8,262,269.6,261.4,269.3,260.7z"/>
		<path class="st3" d="M268.7,263.9c-0.4,0.4-0.8,0.8-1.2,1.2c-0.2,0.5-0.4,1-0.6,1.5c0.6-0.3,1.2-0.5,1.8-0.8
			C268.7,265.2,268.7,264.6,268.7,263.9z"/>
		<path class="st3" d="M253.4,257.6c0.4-0.4,0.8-0.8,1.2-1.2c0.2-0.5,0.4-1,0.6-1.5c-0.6,0.3-1.2,0.5-1.8,0.8
			C253.4,256.3,253.4,256.9,253.4,257.6z"/>
		<path class="st3" d="M250,271.9c0.1,1.3,0.5,2.5,1.4,3.4c1.2,0.4,2.4,0.3,3.7-0.1c-0.5-1-0.9-2.3-1.2-3.7
			C252.5,271.8,251.2,272,250,271.9z"/>
		<path class="st3" d="M272.1,249.7c-0.1-1.3-0.5-2.5-1.4-3.4c-1.2-0.4-2.4-0.3-3.7,0.1c0.5,1,0.9,2.3,1.2,3.7
			C269.6,249.7,270.9,249.6,272.1,249.7z"/>
		<path class="st3" d="M263.5,248.1c1.2-0.8,2.4-1.5,3.5-1.8c-0.6-1.2-1.5-2.1-2.6-2.7c-1.3,0.1-2.4,0.6-3.4,1.5
			C261.9,245.9,262.7,246.9,263.5,248.1z"/>
		<path class="st3" d="M258.5,273.4c-1.2,0.8-2.4,1.5-3.5,1.8c0.6,1.2,1.5,2.1,2.6,2.7c1.3-0.1,2.4-0.6,3.4-1.5
			C260.2,275.7,259.3,274.6,258.5,273.4z"/>
		<path d="M257,270.6c-1.1,0.4-2.1,0.7-3.1,0.9c0.2,1.4,0.6,2.7,1.2,3.7c1.1-0.4,2.3-1,3.5-1.8C258,272.6,257.5,271.6,257,270.6z"/>
		<path d="M265.1,250.9c1.1-0.4,2.1-0.7,3.1-0.9c-0.2-1.4-0.6-2.7-1.2-3.7c-1.1,0.4-2.3,1-3.5,1.8
			C264.1,249,264.6,249.9,265.1,250.9z"/>
		<path d="M268.2,250c0.2,1,0.3,2.1,0.4,3.2c1.1,0.1,2.2,0.2,3.2,0.4c0.3-1.4,0.5-2.7,0.4-3.9C270.9,249.6,269.6,249.7,268.2,250z"
			/>
		<path d="M253.9,271.5c-0.2-1-0.3-2.1-0.4-3.2c0.8,0.1,1.6,0.1,2.4,0.1c-0.3-0.6-0.5-1.2-0.8-1.8c-0.6-0.3-1.2-0.5-1.8-0.8
			c0-0.6,0-1.3,0-1.9c-0.5-0.5-0.9-0.9-1.3-1.4c-0.3,0.8-0.6,1.6-0.8,2.3c-1-0.5-2-1-2.8-1.6c-0.8,1.2-1.5,2.3-1.8,3.5
			c1.1,0.6,2.3,0.9,3.8,1.2c-0.3,1.4-0.5,2.7-0.4,3.9C251.2,272,252.5,271.8,253.9,271.5z M250.3,267.9c0.2-1,0.6-2,0.9-3
			c0.4,0.2,0.8,0.4,1.2,0.6c0.3,0.2,0.6,0.3,0.9,0.5c0,0.2,0,0.4,0,0.6c0,0.6,0,1.2,0,1.8C252.3,268.2,251.3,268.1,250.3,267.9z"/>
		<path class="st3" d="M270.9,256.7c0.4-1.1,0.7-2.1,0.9-3.1c-1-0.2-2-0.3-3.2-0.4c0.1,0.8,0.1,1.6,0.1,2.4
			C269.4,256,270.2,256.3,270.9,256.7z"/>
		<path class="st3" d="M253.4,266.5c0-0.2,0-0.4,0-0.6c-0.3-0.2-0.6-0.3-0.9-0.5c-0.4-0.2-0.8-0.4-1.2-0.6c-0.4,1.1-0.7,2.1-0.9,3
			c1,0.2,2,0.3,3.2,0.4C253.4,267.7,253.4,267.1,253.4,266.5z"/>
		<path class="st3" d="M268.6,253.2c-0.1-1.1-0.2-2.2-0.4-3.2c-1,0.2-2,0.5-3.1,0.9c0.4,0.7,0.7,1.4,1,2.2
			C267,253.2,267.8,253.2,268.6,253.2z"/>
		<path class="st3" d="M253.5,268.3c0.1,1.1,0.2,2.2,0.4,3.2c1-0.2,2-0.5,3.1-0.9c-0.4-0.7-0.7-1.4-1-2.2
			C255.1,268.4,254.3,268.3,253.5,268.3z"/>
		<path d="M266.9,254.9c0.6,0.3,1.2,0.5,1.8,0.8c0-0.8-0.1-1.6-0.1-2.4c-0.8-0.1-1.6-0.1-2.4-0.1
			C266.4,253.7,266.6,254.3,266.9,254.9z"/>
		<path d="M268.7,257.6c0.5,0.5,0.9,0.9,1.3,1.4c0.3-0.8,0.6-1.6,0.8-2.3c-0.7-0.3-1.4-0.7-2.2-1
			C268.7,256.3,268.7,256.9,268.7,257.6z"/>
		<path class="st3" d="M252.7,260.8c-0.2,0.6-0.5,1.2-0.7,1.8c0.4,0.5,0.9,0.9,1.3,1.4c0-0.5,0-1.1,0-1.6
			C253.1,261.8,252.9,261.3,252.7,260.8z"/>
		<path class="st3" d="M268.7,257.6c0,0.5,0,1.1,0,1.6c0.2,0.5,0.4,1,0.6,1.5c0.2-0.6,0.5-1.2,0.7-1.8
			C269.6,258.5,269.2,258.1,268.7,257.6z"/>
		<path class="st3" d="M253.4,263.9c0,0.7,0,1.3,0,1.9c0.6,0.3,1.2,0.5,1.8,0.8c-0.2-0.5-0.4-1-0.6-1.5
			C254.1,264.7,253.7,264.3,253.4,263.9z"/>
		<path class="st3" d="M266.9,254.9c0.2,0.5,0.4,1,0.6,1.5c0.4,0.4,0.8,0.8,1.2,1.2c0-0.7,0-1.3,0-1.9
			C268.1,255.4,267.5,255.1,266.9,254.9z"/>
		<path d="M263.6,273.4c-0.8-0.6-1.7-1.3-2.5-2c-0.8,0.7-1.7,1.4-2.5,2c0.8,1.2,1.6,2.3,2.5,3C262,275.7,262.8,274.6,263.6,273.4z"
			/>
		<path d="M258.5,248.1c0.8,0.6,1.7,1.3,2.5,2c0.8-0.7,1.7-1.4,2.5-2c-0.8-1.2-1.6-2.3-2.5-3C260.1,245.9,259.3,246.9,258.5,248.1z"
			/>
		<path class="st3" d="M259.2,269.8c-0.8,0.3-1.5,0.6-2.3,0.8c0.5,1,1,1.9,1.6,2.8c0.8-0.6,1.6-1.2,2.5-2
			C260.4,270.9,259.9,270.4,259.2,269.8z"/>
		<path class="st3" d="M265.1,250.9c-0.5-1-1-1.9-1.6-2.8c-0.8,0.6-1.6,1.2-2.5,2c0.6,0.5,1.2,1.1,1.8,1.6
			C263.6,251.5,264.3,251.2,265.1,250.9z"/>
		<path class="st3" d="M261,271.4c0.9,0.8,1.7,1.4,2.5,2c0.5-0.9,1.1-1.8,1.6-2.8c-0.7-0.2-1.5-0.5-2.3-0.8
			C262.2,270.3,261.6,270.9,261,271.4z"/>
		<path class="st3" d="M261,250.1c-0.9-0.8-1.7-1.4-2.5-2c-0.5,0.9-1.1,1.8-1.6,2.8c0.7,0.2,1.5,0.5,2.3,0.8
			C259.8,251.2,260.4,250.6,261,250.1z"/>
		<path d="M261.1,269.1c-0.6,0.2-1.2,0.5-1.8,0.7c0.6,0.6,1.2,1.1,1.8,1.6c0.6-0.5,1.2-1.1,1.8-1.6
			C262.2,269.5,261.7,269.3,261.1,269.1z"/>
		<path d="M261,252.5c0.6-0.2,1.2-0.5,1.8-0.7c-0.6-0.6-1.2-1.1-1.8-1.6c-0.6,0.5-1.2,1.1-1.8,1.6C259.8,252,260.4,252.2,261,252.5z
			"/>
		<path d="M264.2,253.1c0.7,0,1.3,0,1.9,0c-0.3-0.8-0.7-1.5-1-2.2c-0.7,0.2-1.5,0.5-2.3,0.8C263.3,252.2,263.7,252.6,264.2,253.1z"
			/>
		<path d="M257.9,268.4c-0.7,0-1.3,0-1.9,0c0.3,0.8,0.7,1.5,1,2.2c0.7-0.2,1.5-0.5,2.3-0.8C258.8,269.3,258.3,268.9,257.9,268.4z"/>
		<path class="st3" d="M256.7,267.3c-0.5-0.2-1-0.4-1.5-0.6c0.3,0.6,0.5,1.2,0.8,1.8c0.6,0,1.3,0,1.9,0
			C257.5,268.1,257.1,267.7,256.7,267.3z"/>
		<path class="st3" d="M264.2,253.1c0.4,0.4,0.8,0.8,1.2,1.2c0.5,0.2,1,0.4,1.5,0.6c-0.3-0.6-0.5-1.2-0.8-1.8
			C265.5,253.1,264.9,253.1,264.2,253.1z"/>
		<path class="st3" d="M261,252.5c0.5,0.2,1,0.4,1.5,0.6c0.6,0,1.1,0,1.7,0c-0.5-0.5-0.9-0.9-1.4-1.3
			C262.2,252,261.6,252.2,261,252.5z"/>
		<path class="st3" d="M259.5,268.4c-0.6,0-1.1,0-1.7,0c0.5,0.5,0.9,0.9,1.4,1.3c0.6-0.2,1.2-0.5,1.8-0.7
			C260.5,268.9,260,268.7,259.5,268.4z"/>
		<path d="M257.9,268.4c0.5,0,1.1,0,1.7,0c0.5,0.2,1,0.4,1.5,0.6c0.5-0.2,1-0.4,1.5-0.6c0.6,0,1.1,0,1.6,0c0.4-0.4,0.8-0.8,1.2-1.2
			c0.5-0.2,1-0.4,1.5-0.6c0.2-0.5,0.4-1,0.6-1.5c0.4-0.4,0.8-0.8,1.2-1.2c0-0.5,0-1.1,0-1.7c0.2-0.5,0.4-1,0.6-1.5
			c-0.2-0.5-0.4-1-0.6-1.5c0-0.6,0-1.1,0-1.6c-0.4-0.4-0.8-0.8-1.2-1.2c-0.2-0.5-0.4-1-0.6-1.5c-0.5-0.2-1-0.4-1.5-0.6
			c-0.4-0.4-0.8-0.8-1.2-1.2c-0.5,0-1.1,0-1.7,0c-0.5-0.2-1-0.4-1.5-0.6c-0.5,0.2-1,0.4-1.5,0.6c-0.6,0-1.1,0-1.6,0
			c-0.4,0.4-0.8,0.8-1.2,1.2c-0.5,0.2-1,0.4-1.5,0.6c-0.2,0.5-0.4,1-0.6,1.5c-0.4,0.4-0.8,0.8-1.2,1.2c0,0.5,0,1.1,0,1.7
			c-0.2,0.5-0.4,1-0.6,1.5c0.2,0.5,0.4,1,0.6,1.5c0,0.6,0,1.1,0,1.6c0.4,0.4,0.8,0.8,1.2,1.2c0.2,0.5,0.4,1,0.6,1.5
			c0.5,0.2,1,0.4,1.5,0.6C257.1,267.7,257.5,268.1,257.9,268.4z"/>
		<path d="M257.9,253.1c0.5-0.5,0.9-0.9,1.4-1.3c-0.8-0.3-1.6-0.6-2.3-0.8c-0.3,0.7-0.7,1.4-1,2.2
			C256.5,253.1,257.2,253.1,257.9,253.1z"/>
		<path d="M264.2,268.4c-0.5,0.5-0.9,0.9-1.4,1.3c0.8,0.3,1.6,0.6,2.3,0.8c0.3-0.7,0.7-1.4,1-2.2
			C265.5,268.4,264.9,268.4,264.2,268.4z"/>
		<path class="st3" d="M257.9,253.1c0.5,0,1.1,0,1.6,0c0.5-0.2,1-0.4,1.5-0.6c-0.6-0.2-1.2-0.5-1.8-0.7
			C258.8,252.2,258.3,252.6,257.9,253.1z"/>
		<path class="st3" d="M264.2,268.4c-0.5,0-1.1,0-1.6,0c-0.5,0.2-1,0.4-1.5,0.6c0.6,0.2,1.2,0.5,1.8,0.7
			C263.3,269.3,263.7,268.9,264.2,268.4z"/>
		<path class="st3" d="M266.9,266.6c-0.5,0.2-1,0.4-1.5,0.6c-0.4,0.4-0.8,0.8-1.2,1.2c0.7,0,1.3,0,1.9,0
			C266.4,267.8,266.7,267.2,266.9,266.6z"/>
		<path class="st3" d="M255.1,254.9c0.5-0.2,1-0.4,1.5-0.6c0.4-0.4,0.8-0.8,1.2-1.2c-0.7,0-1.3,0-1.9,0
			C255.7,253.7,255.4,254.3,255.1,254.9z"/>
	</g>
</g>
</svg>
